<?xml version="1.0" encoding="UTF-8"?>
<!DOCTYPE svg PUBLIC
    "-//W3C//DTD XHTML 1.1 plus MathML 2.0 plus SVG 1.1//EN"
    "http://www.w3.org/2002/04/xhtml-math-svg/xhtml-math-svg.dtd"[
<!ENTITY % XLINK.xmlns "http://www.w3.org/1999/xlink" >
<!ENTITY % SVG.prefixed "IGNORE" >
<!ENTITY % XHTML.prefixed "INCLUDE" >
<!ENTITY % XHTML.prefix "xhtml" >
<!ENTITY % MATHML.module "IGNORE" >
]>
<svg xmlns="http://www.w3.org/2000/svg" preserveAspectRatio="xMinYMin meet" version="1.1" id="svg2" viewBox="0 0 950 546.5">
  <title>Her er mit kort ;)</title>
  <style type="text/css">
    .country {
      stroke: transparent;
      stroke-width: 1px;

      transition: transform 0.5s ease-out, stroke 250ms ease-in 200ms;
      transform-box: fill-box; /* default in Chrome*/
      transform-origin: center bottom;
    }
    .country:hover {
      stroke: grey;
      transform: scale(1.1);
    }
  </style>
  <g>
    <path class="country" id="estonia" fill="#84C47B" d="M517.77,143.658l-5.6-0.198l-3.55,2.17l-0.05,1.608l2.3,2.17l7.149,1.211L517.77,143.658  L517.77,143.658z"></path>
    <path class="country" id="brunei" fill="#84C47B" d="M779.77,319.25l-2.879,3.488l2.359,0.74l1.33-1.859L779.77,319.25L779.77,319.25z"></path>
    <path class="country" id="paramushir" fill="#84C47B" d="M840.04,132.03l-1.24,1.54l0.101,2.41l1.149-0.1l1.91-3.37L840.04,132.03L840.04,132.03z"></path>
    <path class="country" id="onekotan" fill="#84C47B" d="M837.75,137.908v4.24l1.34,0.48l0.96-1.54v-3.271L837.75,137.908L837.75,137.908z"></path>
    <path class="country" id="kerguelen" fill="#84C47B" d="M622.76,499.618l-0.15,4.29l5.94,1.381l1.37-3.529l-2.13,0.609l-2.74,0.609l-0.76-3.22  L622.76,499.618L622.76,499.618z"></path>
    <path class="country" id="flores_1_" fill="#84C47B" d="M372.64,217.02l-1.359,1.37l2.438,1.37l0.271-1.91L372.64,217.02L372.64,217.02z"></path>
    <path class="country" id="terceira" fill="#84C47B" d="M379.97,216.198l-1.63,1.092l1.36,1.09l2.17-0.55L379.97,216.198L379.97,216.198z"></path>
    <path class="country" id="pico" fill="#84C47B" d="M381.05,220.03l-0.81,2.19l1.08,1.37l1.358-1.09L381.05,220.03L381.05,220.03z"></path>
    <path class="country" id="sao_miguel" fill="#84C47B" d="M387.56,224.4l-0.54,1.37l0.81,0.82l2.17-1.37L387.56,224.4L387.56,224.4z"></path>
    <path class="country" id="madeira" fill="#84C47B" d="M408.18,236.42l-1.08,1.37l1.08,1.368l1.631-0.818L408.18,236.42L408.18,236.42z"></path>
    <path class="country" id="lanzarote" fill="#84C47B" d="M415.62,253.73l-1.75,1.01l0.81,0.82L415.62,253.73L415.62,253.73z"></path>
    <path class="country" id="gran_canaria" fill="#84C47B" d="M409.54,253.92l-2.17,0.55l1.08,1.64h1.63L409.54,253.92L409.54,253.92z"></path>
    <path class="country" id="tenerife" fill="#84C47B" d="M404.38,252.28l-1.36,1.37l1.9,1.642l1.08-2.46L404.38,252.28L404.38,252.28z"></path>
  </g>
  <g>
    <path class="country" id="algeria" fill="#84C47B" d="M473.88,227.49l-4.08-1.368l-16.979,3.188l-3.7,2.812l2.26,11.67l-6.75,0.27l-4.06,6.53   l-9.671,2.318l0.029,4.752l31.852,24.35l5.43,0.46l18.11-14.15l-1.812-2.278l-3.398-0.46l-2.04-3.42v-14.15l-1.36-1.37l0.229-3.65   l-3.618-3.648l-0.45-3.88l1.58-1.142l-0.682-4.108L473.88,227.49L473.88,227.49z"></path>
    <path class="country" id="morocco" fill="#84C47B" d="M448.29,232.28h-11.55l-2.26,5.021l-5.211,2.51l-4.301,11.64l-8.38,5.021l-11.77,19.39   l11.55-0.229l0.45-5.7h2.938v-7.76h10.19l0.229-10.04l9.74-2.28l4.08-6.62l6.34-0.229L448.29,232.28L448.29,232.28z"></path>
    <path class="country" id="mauretania" fill="#84C47B" d="M404.9,276.658l2.18,2.852l-0.45,12.32l3.17-2.28l2.261-0.46l3.17,1.14l3.619,5.021   l3.4-2.28l16.53-0.23l-4.08-27.608l4.38-0.021l-8.16-6.25l0.01,4.062l-10.33,0.01l-0.05,7.75l-2.97-0.01l-0.38,5.72L404.9,276.658   L404.9,276.658z"></path>
    <path class="country" id="senegal" fill="#84C47B" d="M410.12,290.32l-3.94,2.86l-0.898,1.6L405,296.38l1.45,1.04l4.84-0.07l3.11-0.84l0.35,1.53   l-0.28,2.02l2.97,1.46l0.621,0.7l3.939,0.14l0.141-1.738l-3.601-4.32l-4.01-5.43l-2.49-1.04L410.12,290.32L410.12,290.32z"></path>
    <path class="country" id="gambia" fill="#84C47B" d="M406.891,298.34l-0.131,1.108l6.92-0.1l0.352-1.03l-0.15-1.04l-1.988,0.812L406.891,298.34   L406.891,298.34z"></path>
    <path class="country" id="casamance" fill="#84C47B" d="M406.79,300.22l1.24,3.01l0.688-1.858l8.41,0.88l-3.64-1.87L406.79,300.22L406.79,300.22z"></path>
    <path class="country" id="bissau" fill="#84C47B" d="M408.6,304.53l1.4,2.771l3.93-3.38l0.04-1.04l-4.63-0.67L408.6,304.53L408.6,304.53z"></path>
    <path class="country" id="guinee" fill="#84C47B" d="M410.42,307.94l3.04,4.68l3.96-3.438L421.48,309l3.381,4.489l2.869,1.891l1.08-2.101   l0.959-0.54l-0.068-4.62l-1.91-5.479l-5.859,0.65l-7.25-0.58l-0.041,1.858L410.42,307.94L410.42,307.94z"></path>
    <path class="country" id="sierra_leone" fill="#84C47B" d="M413.93,313.129l5.65,5.461l4.029-4.892l-2.521-3.948l-3.47,0.35L413.93,313.129   L413.93,313.129z"></path>
    <path class="country" id="liberia" fill="#84C47B" d="M420.17,319.19l10.98,7.34l-0.26-5.56l-3.32-3.91l-3.24-2.87L420.17,319.19L420.17,319.19z"></path>
    <path class="country" id="ivoire" fill="#84C47B" d="M432.07,326.75l4.279-3.03l5.319-0.931l5.431,1.17l-2.771-4.189l-0.812-2.561l0.812-7.569   l-4.851,0.229l-2.199-2.101l-4.62,0.12l-2.2,0.35l0.229,5.12l-1.158,0.472l-1.392,2.56l3.58,4.19L432.07,326.75L432.07,326.75z"></path>
    <path class="country" id="mali" fill="#84C47B" d="M419.46,295.84l3.08-2.11l17.12-0.1l-3.96-27.54l4.52-0.13l21.87,16.688l2.94,0.42l-1.11,9.28   l-13.75,1.25l-10.609,7.92l-1.931,5.42l-7.37,0.312l-1.88-5.41l-5.649,0.398l0.221-1.77L419.46,295.84L419.46,295.84z"></path>
    <path class="country" id="burkina" fill="#84C47B" d="M450.59,294.28l3.641-0.29l5.971,8.44l-5.54,4.18l-4.011-1.028l-5.391,0.068l-0.87,3.16   l-4.52,0.22l-1.24-1.688l1.601-5.142L450.59,294.28L450.59,294.28z"></path>
    <path class="country" id="niger" fill="#84C47B" d="M460.891,302l2.549-0.062l2.302-3.45l3.858-0.688l4.11,2.51l8.771,0.25l6.779-2.76l2.551-2.19   l0.189-2.88l4.73-4.77l1.25-10.53l-3.11-6.521l-7.96-1.938l-18.42,14.36l-2.61-0.25l-1.12,9.97l-9.399,0.938L460.891,302   L460.891,302z"></path>
    <path class="country" id="ghana" fill="#84C47B" d="M444.34,317.05l1.12,2.63l2.92,4.58l1.62-0.062l4.42-2.51l-0.31-14.29l-3.421-1l-4.789,0.13   L444.34,317.05L444.34,317.05z"></path>
    <path class="country" id="togo" fill="#84C47B" d="M455.22,321.25l2.681-1.57l-0.061-10.35l-1.74-2.82l-1.119,0.938L455.22,321.25L455.22,321.25z"></path>
    <path class="country" id="benin" fill="#84C47B" d="M458.71,319.49h2.12l0.12-6.02l2.68-3.89l-0.12-6.771l-2.43-0.06l-4.17,3.26l1.74,3.319   L458.71,319.49L458.71,319.49z"></path>
    <path class="country" id="nigeria" fill="#84C47B" d="M461.57,319.368l3.92,0.19l4.729,5.271l2.301,0.629l1.801-0.879l2.74-0.382l0.93-3.819   l3.729-2.449l4.04-0.19l7.4-13.608l-0.12-3.07l-3.42-2.63l-6.84,3.01l-9.15-0.13l-4.359-2.76l-3.109,0.688l-1.62,2.82l-0.12,7.96   l-2.609,3.7L461.57,319.368L461.57,319.368z"></path>
    <path class="country" id="tunisia" fill="#84C47B" d="M474.91,227.33l5.529-2.23l1.819,1.18l0.07,1.44l-0.851,1.11l0.131,1.97l0.85,0.46v3.54   l-0.979,1.64l0.13,1.05l3.71,1.312l-2.99,4.648l-1.17-0.068l-0.2,3.74l-1.3,0.198l-1.11-0.979l0.261-3.8L475.17,239l-0.46-3.08   l1.76-1.38L474.91,227.33L474.91,227.33z"></path>
    <path class="country" id="libya" fill="#84C47B" d="M480.05,248.03l1.56-0.26l0.462-3.6h0.778l3.19-5.24l7.87,2.29l2.15,3.34l7.738,3.54l4.03-1.7   l-0.392-1.7L505.68,243l0.2-1.182l2.86-2.42h5.66l2.148,2.88l4.55,0.66l0.591,36.892l-3.379-0.132l-20.42-10.618l-2.211,1.25   l-8.39-2.102l-2.28-3.01l-3.32-0.46L480,261.75L480.05,248.03L480.05,248.03z"></path>
    <path class="country" id="egypt" fill="#84C47B" d="M521.93,243.06l2.67,0.07l5.2,1.438l2.47,0.07l3.062-2.56h1.43l2.601,1.438h3.291l0.59-0.04   l2.08,5.98l0.59,1.93l0.55,2.89L545.48,255l-1.69-0.852l-1.95-6.358l-1.76-0.132l-0.13,2.16l1.17,3.74l9.37,11.6l0.199,4.98   l-2.729,3.15L522.32,273L521.93,243.06L521.93,243.06z"></path>
    <path class="country" id="chad" fill="#84C47B" d="M492.79,296l0.13-2.95l4.74-4.61l1.27-11.318l-3.16-6.04l2.211-1.132l21.399,11.15l-0.13,10.94   l-3.77,3.21v5.64l2.47,4.78h-4.36l-7.22,7.14l-0.19,2.16l-5.33-0.07l-0.068,0.979l-3.04-0.399l-2.08-3.93l-1.562-0.771l0.2-1.198   l1.96-1.5v-7.021l-2.71-0.42l-3.27-2.43L492.79,296L492.79,296L492.79,296z"></path>
    <path class="country" id="sudan" fill="#84C47B" d="M520.15,292.43l0.18-11.83l2.46,0.07l-0.28-6.57l25.801,0.23L552,270.61l7.96,12.73l-4.36,5.14   v7.852l-6.858,14.749l-2.36,1.039l0.75,4.11h2.94l3.989,5.79l-3.199,0.41l-0.82,1.49l-0.08,2.148l-9.6-0.17l-0.98-1.489   l-6.71-0.381l-12.319-12.68l1.229-0.74l0.33-2.979l-2.95-1.739l-2.689-5.31l0.149-4.94L520.15,292.43L520.15,292.43z"></path>
    <path class="country" id="cameroon" fill="#84C47B" d="M477.82,324.28l3.22,2.96l-0.229,4.58l17.659-0.41l1.44-1.62l-5.061-5.448l-0.75-1.972   l3.221-6.028l-2.19-4l-1.84-0.99v-2.03l2.13-1.39l0.12-6.32l-1.69-0.188l-0.028,3.318l-7.421,13.852l-4.54,0.229l-3.109,2.141   L477.82,324.28L477.82,324.28z"></path>
    <path class="country" id="eritrea" fill="#84C47B" d="M556.71,294.698l-0.25-5.89l3.96-4.62l1.07,0.82l1.949,6.52l9.359,6.972l-1.699,2.09   l-6.851-5.892H556.71L556.71,294.698z"></path>
    <path class="country" id="djibouti" fill="#84C47B" d="M571.48,301.54l-0.57,3.358l3.96-0.06l0.06-4.94l-1.449-0.89L571.48,301.54L571.48,301.54z"></path>
    <path class="country" id="ethiopia" fill="#84C47B" d="M549.49,311.76l7.279-16.2l7.229,0.04l6.41,5.57l-0.45,4.59h4.97l0.511,2.76l8.041,4.811   l4.959,0.25l-9.431,10.129l-12.948,3.99h-3.212l-5.72-4.88l-2.26-0.95l-4.38-6.449l-2.892,0.039l-0.34-2.959L549.49,311.76   L549.49,311.76z"></path>
    <path class="country" id="somaliland" fill="#84C47B" d="M575.74,305.04l4.08,2.778l1.21-0.06l10.13-3.48l1.15,3.71l-0.812,3.13l-2.188,1.74   l-5.472-0.35l-7.83-4.812L575.74,305.04L575.74,305.04z"></path>
    <path class="country" id="soqotra" fill="#84C47B" d="M599.62,299.65l2.13,2.38l2.88-1.738l1.04-0.352l-1.32-1.28l-2.528,0.75L599.62,299.65   L599.62,299.65z"></path>
    <path class="country" id="somalia" fill="#84C47B" d="M591.97,304.05l4.37-1.68l1.55,0.93l-0.17,3.88l-4.03,11.479l-21.81,23.36l-2.53-1.74   l-0.17-9.858l3.28-3.771l6.96-2.148l10.21-10.78l2.67-2.38l0.75-3.48L591.97,304.05L591.97,304.05z"></path>
    <path class="country" id="centrafrique" fill="#84C47B" d="M495.66,324.05l4.66,5.04l1.84-2.381l2.93,0.121l0.63-2.32l2.88-1.801l5.98,4.121   l3.45-3.422L531.42,324L519,311.18l1.67-1.04l0.23-2.261l-2.82-1.329h-4.141l-6.67,6.608l-0.229,2.721l-5.29-0.17l-0.17,1.159   l-3.45-0.35l-3.11,5.91L495.66,324.05L495.66,324.05z"></path>
    <path class="country" id="sao_tome" fill="#84C47B" d="M470.74,337.15l1.148-0.58l0.86,0.7l-0.86,1.33l-1.04-0.41L470.74,337.15L470.74,337.15z"></path>
    <path class="country" id="principe" fill="#84C47B" d="M473.05,333.5l1.73-0.291l0.579,1.101l-0.859,0.93l-0.859-0.12L473.05,333.5L473.05,333.5z"></path>
    <path class="country" id="bioko" fill="#84C47B" d="M476.84,327.408l-0.46,1.971l1.38,0.75l1.32-0.989l-0.46-2.03L476.84,327.408L476.84,327.408z"></path>
    <path class="country" id="gabon" fill="#84C47B" d="M486.391,332.629l-0.121,2.489L480.63,335l-3.45,6.67l8.11,8.869l2.01-1.681l-0.06-1.739   l-1.381-0.641v-1.22l3.109-1.972l2.762,2.09l3.05,0.062l-0.062-10.49l-4.83-0.229l-0.06-2.2L486.391,332.629L486.391,332.629z"></path>
    <path class="country" id="equatorial_guinea" fill="#84C47B" d="M480.99,332.69l-0.062,1.391l4.54,0.229l-0.06-1.57L480.99,332.69L480.99,332.69z"></path>
    <path class="country" id="congo" fill="#84C47B" d="M491,332.52l-0.061,1.45l4.779,0.12l0.171,12.41l-4.37-0.121l-2.529-1.971l-1.96,1.102   l-0.091,0.55l1.011,0.49l0.29,2.55l-2.7,2.32l0.58,1.22l2.989-2.32h1.439l0.46,1.39l1.9,0.812l6.1-5.16l-0.119-3.77l1.271-3.07   l3.91-2.899l1.05-9.811l-2.78,0.01l-3.22,4.41L491,332.52L491,332.52z"></path>
    <path class="country" id="cabinda" fill="#84C47B" d="M486.55,353.23l1.74,2.26l2.25-2.13l-0.66-2.21l-0.56-0.04L486.55,353.23L486.55,353.23z"></path>
    <path class="country" id="drc" fill="#84C47B" d="M489.38,355.709l10.31-0.181l2.092,2.972l-0.08,2.188l0.77,0.7h5.12l1.472-2.891h2.09l0.85,0.859   l2.87-0.08l0.85,10.08l4.96,0.16v0.78l13.33,6.01l0.62,1.17h2.79l-0.311-4.22l-5.039-2.42l0.31-3.2l2.17-5.08l4.96-0.16   l-4.26-14.14l0.08-6.01l6.74-10.541l0.08-1.479l-1.01-0.55l0.039-2.86l-1.229-0.11l-1.24-1.579l-20.35-0.921l-3.73,3.632   l-6.11-4.021l-2.148,1.32l-1.561,13.13l-3.859,2.98l-1.16,2.64l0.21,3.91l-6.96,5.688l-1.85-0.84l0.25,1.09L489.38,355.709   L489.38,355.709z"></path>
    <path class="country" id="rwanda" fill="#84C47B" d="M537.82,339.9l2.81,2.59l-0.12,2.771l-4.359,0.09v-3.062L537.82,339.9L537.82,339.9z"></path>
    <path class="country" id="burundi" fill="#84C47B" d="M536.21,346.209l4.271-0.09l-1.109,3.739l-1.08,0.94h-1.32l-0.938-2.53L536.21,346.209   L536.21,346.209z"></path>
    <path class="country" id="uganda" fill="#84C47B" d="M538.3,339.09l3.03,2.84l1.9-1.21l5.14-0.841l0.88,0.091l0.33-1.95l2.9-6.1l-2.44-5.08   l-7.91,0.05l-0.05,2.09l1.061,1.021l-0.159,2.091L538.3,339.09L538.3,339.09z"></path>
    <path class="country" id="kenya" fill="#84C47B" d="M550.83,326.52l2.66,5.189l-3.19,6.689l-0.42,2.03l15.931,9.85l4.939-7.76l-2.5-2.03   l-0.05-10.22l3.13-3.42l-4.99,1.66l-3.77,0.05l-5.9-4.979l-1.859-0.802l-3.45,0.32l-0.609,1.02L550.83,326.52L550.83,326.52z"></path>
    <path class="country" id="tanzania" fill="#84C47B" d="M550.57,371.42l17.47-2.142l-3.931-7.6l-0.209-7.28l1.27-3.479l-16.62-10.44l-5.21,0.86   l-1.81,1.34l-0.16,3.05l-1.17,4.229l-1.22,1.449l-1.75,0.16l3.35,11.61l5.47,2.569l3.771,0.109L550.57,371.42L550.57,371.42z"></path>
    <path class="country" id="zambia" fill="#84C47B" d="M514.55,384.698l3.17,4.4l4.91,0.3l1.74,0.96l5.14,0.062l4.43-6.211l12.381-5.539l1.08-4.881   l-1.439-6.989l-6.46-3.682l-4.312,0.302l-2.148,4.76l0.061,2.17l5.079,2.47l0.302,5.37l-4.371,0.24l-1.08-1.812l-12.141-5.18   l-0.359,3.979l-5.739,0.181L514.55,384.698L514.55,384.698z"></path>
    <path class="country" id="angola" fill="#84C47B" d="M488.62,356.709l3.41,12.729l-0.08,4.021l-4.99,5.359l-0.75,8.71l19.2,0.17l6.24,2.261   l5.148-0.67l-3-3.761l0.012-10.739l5.898-0.25v-4.189l-4.79-0.2l-0.96-9.92l-2.02,0.03l-1.092-0.98l-1.188,0.062l-1.58,3.06H502   l-1.41-1.42l0.42-2.01l-1.66-2.432L488.62,356.709L488.62,356.709z"></path>
    <path class="country" id="malawi" fill="#84C47B" d="M547.16,379.4l3.109,3.25l-0.061,4.16l0.602,1.75l4.129-4.46l-0.479-5.67l-2.21-1.69   l-1.97-9.95l-3.41-0.119l1.55,7.171L547.16,379.4L547.16,379.4z"></path>
    <path class="country" id="mozambique" fill="#84C47B" d="M541.17,413.28l2.689,2.23l6.341-3.86l1.02-5.729v-9.461l10.171-8.318l1.739,0.06   l6.16-5.909l-0.96-12.181L552,372.17l0.48,3.68l2.81,2.17l0.66,6.63l-5.5,5.37l-1.32-3.01l0.24-3.98l-3.17-3.438l-7.78,3.618   l7.24,3.682l0.24,10.729l-4.791,7.11L541.17,413.28L541.17,413.28z"></path>
    <path class="country" id="zimbabwe" fill="#84C47B" d="M524.66,392.3l8.97,10.13l6.88,1.75l4.61-7.23l-0.36-9.58l-7.479-3.858l-2.812,1.27   l-4.188,6.392l-5.801-0.062L524.66,392.3L524.66,392.3z"></path>
    <path class="country" id="namibia" fill="#84C47B" d="M496.55,421.959l3.351,0.239l1.971,1.99l4.67,0.062l1.141-13.262v-8.68l2.989-0.602l1.142-9.1   l7.6-0.24l2.689-2.229l-4.551-0.182l-6.158,0.842l-6.642-2.41h-18.66l0.48,5.3l6.22,9.16l-1.08,4.7l0.061,2.47L496.55,421.959   L496.55,421.959z"></path>
    <path class="country" id="botswana" fill="#84C47B" d="M508.51,411.23l2.15,0.66l-0.3,6.149l2.21,0.301l5.08-4.58l6.1,0.66l1.62-4.102l7.72-7.05   l-9.27-10.67l-0.12-1.75l-1.021-0.3l-2.81,2.59l-7.301,0.18l-1.021,9.102l-2.87,0.66L508.51,411.23L508.51,411.23z"></path>
    <path class="country" id="swaziland" fill="#84C47B" d="M540.87,414l-2.511,0.42l-1.079,2.949l1.92,1.75h2.33l1.97-2.83L540.87,414L540.87,414z"></path>
    <path class="country" id="lesotho" fill="#84C47B" d="M527.41,425.39l3.05-2.351l1.44,0.061l1.738,2.17l-0.18,2.17l-2.93,1.08v0.84l-3.23-0.18   l-0.779-2.35L527.41,425.39L527.41,425.39z"></path>
    <path class="country" id="south_africa" fill="#84C47B" d="M534.16,403.629l-7.9,7.301l-1.88,4.51l-6.26-0.78l-5.21,4.63l-3.46-0.34l0.28-6.398   l-1.23-0.432l-0.86,13.09l-6.14-0.06l-1.85-2.18l-2.711-0.03l2.471,7.09l4.41,4.17l-3.15,3.67l2.04,4.602l4.72,1.8l3.76-3.2   l10.771,0.062l0.771-0.96l4.778-0.84l16.17-16.102l-0.06-5.068l-1.729,2.238H539.3l-3.149-2.64l1.601-3.98l2.75-0.56l-0.25-8.182   L534.16,403.629L534.16,403.629z M530.37,422.129l1.51-0.061l2.45,2.66l-0.07,3.08l-2.869,1.45l-0.181,1.02l-4.38,0.052   l-1.37-3.302l1.25-2.42L530.37,422.129L530.37,422.129z"></path>
    <path class="country" id="mauritius" fill="#84C47B" d="M613.01,398.99l-1.52,1.99l0.3,2.149l3.2-2.609L613.01,398.99L613.01,398.99z"></path>
    <path class="country" id="reunion" fill="#84C47B" d="M607.38,402.368l-2.28,0.15l-0.148,1.99l1.52,0.31l2.28-1.068L607.38,402.368L607.38,402.368z   "></path>
    <path class="country" id="madagascar" fill="#84C47B" d="M592.3,372.92l-2.13,5.06l-3.65,6.44l-6.39,0.459l-2.74,3.221l0.46,9.82l-3.96,4.6   l0.46,7.82l3.352,3.83l3.96-0.461l3.96-2.92l-0.91-4.601l9.13-15.8l-1.83-1.99l1.83-3.83l1.98,0.61l0.608-1.53l-1.83-7.818   l-1.068-3.222L592.3,372.92L592.3,372.92z"></path>
    <path class="country" id="grande_comore" fill="#84C47B" d="M577.689,371.23l0.461,1.53l1.979,0.31l0.762-1.989L577.689,371.23L577.689,371.23z"></path>
    <path class="country" id="mayotte" fill="#84C47B" d="M580.58,374.3l0.76,1.688h1.221l0.609-2.148L580.58,374.3L580.58,374.3z"></path>
    <path class="country" id="aldabra" fill="#84C47B" d="M602.35,358.34l-0.608,1.229l1.67,1.38l1.22-1.38L602.35,358.34L602.35,358.34z"></path>
    <path class="country" id="praslin" fill="#84C47B" d="M610.88,349.14l-1.83,1.229l1.37,2.149h1.83L610.88,349.14L610.88,349.14z"></path>
    <path class="country" id="mahe" fill="#84C47B" d="M611.641,354.51l-1.221,1.38l0.91,1.38l1.67,0.311l0.15-2.92L611.641,354.51L611.641,354.51z"></path>
    <path class="country" id="santo_antao" fill="#84C47B" d="M387.56,290.54l-1.899,1.09l1.36,1.09l1.63-0.82L387.56,290.54L387.56,290.54z"></path>
    <path class="country" id="boa_vista" fill="#84C47B" d="M392.23,292.74l-1.24,1.102l0.88,1.63l2.12-0.95L392.23,292.74L392.23,292.74z"></path>
    <path class="country" id="santiago" fill="#84C47B" d="M389.52,295.83l-1.59,0.948l1.71,2.29l1.352-0.71L389.52,295.83L389.52,295.83z"></path>
  </g>
  <g>
    <path class="country" id="papua_new_guinea" fill="#84C47B" d="M852.76,348.289l-0.369,24.439l3.521-0.189l4.63-5.41l3.891,0.189l2.5,2.24   l0.829,6.898l7.962,4.2l2.038-0.75v-2.52l-6.39-5.32l-3.15-7.28l2.5-1.209l-1.85-4.011l-3.7-0.09l-0.93-4.29l-9.812-6.62   L852.76,348.289L852.76,348.289z"></path>
    <path class="country" id="australia" fill="#84C47B" d="M761.17,427.98l-0.35,25.38l-3.9,2.86l-0.35,2.5l5.32,3.569l13.129-2.5h6.739l2.48-3.58   l14.899-2.859l10.641,3.22l-0.71,4.29l1.42,4.29l8.159-1.43l0.351,2.14l-5.32,3.93l1.771,1.432l3.898-1.432l-1.06,11.802l7.45,5.72   l4.26-1.43l2.13,2.14l12.42-1.79l11.71-18.95l4.261-1.069l8.511-15.729l2.13-13.58l-5.32-6.79l2.13-1.43l-4.26-13.23l-4.61-3.22   l0.711-17.87l-4.261-3.22l-1.06-10.01h-2.131l-7.101,23.59l-3.899,0.36l-8.869-8.94l4.97-13.229l-9.22-1.791l-10.29,2.86   l-2.841,8.22l-4.609,1.07l-0.35-5.72L791.35,398.99l0.352,4.29l-2.84,3.93h-7.102l-15.26,6.432L761.17,427.98L761.17,427.98z"></path>
    <path class="country" id="tasmania" fill="#84C47B" d="M825.74,496.26l-1.771,7.148l0.352,5l5.318-0.358l6.03-9.29L825.74,496.26L825.74,496.26z"></path>
    <path class="country" id="new_zealand_north_island" fill="#84C47B" d="M913.02,481.959l1.062,11.801l-1.42,5.359l-5.32,3.931l0.351,4.648v5   l1.42,1.79l14.551-12.51v-2.86h-3.551l-4.969-16.8L913.02,481.959L913.02,481.959z"></path>
    <path class="country" id="new_zealand_south_island" fill="#84C47B" d="M902.38,507.698l2.84,5.36l-7.81,7.51l-0.71,3.932l-5.32,0.709l-8.87,8.221   l-8.16-3.93l-0.709-2.86l14.899-6.431L902.38,507.698L902.38,507.698z"></path>
    <path class="country" id="new_caledonia" fill="#84C47B" d="M906.641,420.47l-0.351,1.79l4.61,6.43l2.479,1.07l0.352-2.5L906.641,420.47   L906.641,420.47z"></path>
    <path class="country" id="new_ireland" fill="#84C47B" d="M880.48,349l-0.881,1.25l4.811,4.26l0.66,2.5l1.31-0.15l0.15-2.57l-1.46-1.318L880.48,349   L880.48,349z"></path>
    <path class="country" id="new_britain" fill="#84C47B" d="M882.891,355.03l-0.951,0.221l-0.58,2.569L879.54,359l-5.47,0.959l0.22,2.061l5.76-0.29   l3.65-2.28l-0.22-3.97L882.891,355.03L882.891,355.03z"></path>
    <path class="country" id="bougainville" fill="#84C47B" d="M889.38,359.51l1.24,3.449l2.19,2.131l0.658-0.59l-0.22-2.28l-2.479-3.011L889.38,359.51   L889.38,359.51z"></path>
    <path class="country" id="choiseul" fill="#84C47B" d="M895.43,364.65l0.15,2.28l1.39,1.32l1.312-0.812l-1.17-2.43L895.43,364.65L895.43,364.65z"></path>
    <path class="country" id="new_georgia" fill="#84C47B" d="M897.18,370.31l-1.17,1.25l1.24,2.28l1.46,0.438l-0.069-1.54L897.18,370.31L897.18,370.31   z"></path>
    <path class="country" id="santa_isabel" fill="#84C47B" d="M900.03,368.99l1.02,2.5l1.97,2.352l1.092-1.761l-1.461-2.5L900.03,368.99L900.03,368.99   z"></path>
    <path class="country" id="malaita" fill="#84C47B" d="M905.141,372.74l0.579,3.091l1.392,1.909l1.17-2.42L905.141,372.74L905.141,372.74z"></path>
    <path class="country" id="santa_ana" fill="#84C47B" d="M906.74,379.65l-0.51,0.88l1.68,2.21l1.17,0.07l-0.73-2.87L906.74,379.65L906.74,379.65z"></path>
    <path class="country" id="rennell" fill="#84C47B" d="M903.02,384.05l-1.75,0.81l1.53,2.13l1.312-0.739L903.02,384.05L903.02,384.05z"></path>
    <path class="country" id="espiritu_santo" fill="#84C47B" d="M920.87,397.22l-1.24,1.659l0.521,1.871l0.619,0.42l1.131-1.461L920.87,397.22   L920.87,397.22z"></path>
    <path class="country" id="malakula" fill="#84C47B" d="M921.49,402.31l0.1,1.35l1.34,0.421l0.93-0.521l-0.93-1.46L921.49,402.31L921.49,402.31z"></path>
    <path class="country" id="efate" fill="#84C47B" d="M923.45,414.368l-0.62,0.94l0.93,1.04l1.551-0.521L923.45,414.368L923.45,414.368z"></path>
    <path class="country" id="fiji" fill="#84C47B" d="M948.62,412.289l-1.24,1.659l-0.1,1.87l1.44,1.46L948.62,412.289L948.62,412.289z"></path>
    <path class="country" id="path13641" fill="#84C47B" d="M10,248.698l-0.14,2.33l2.04,1.37l1.22-1.09L10,248.698L10,248.698z"></path>
    <path class="country" id="path13643" fill="#84C47B" d="M15.29,252.13l-1.9,1.37l1.63,2.05l1.9-1.642L15.29,252.13L15.29,252.13z"></path>
    <path class="country" id="path13645" fill="#84C47B" d="M19.1,255.408l-1.63,2.19l0.54,1.37l2.312-1.09L19.1,255.408L19.1,255.408z"></path>
    <path class="country" id="hawaii" fill="#84C47B" d="M21.81,259.65l-0.949,5.472l0.949,2.05l3.12-0.96l1.63-2.74l-3.399-3.15L21.81,259.65   L21.81,259.65z"></path>
    <path class="country" id="raiatea" fill="#84C47B" d="M27.25,402.68l-1.9-0.141l-0.14,1.779l1.49,0.96l1.77-1.09L27.25,402.68L27.25,402.68z"></path>
    <path class="country" id="tahiti" fill="#84C47B" d="M33.77,404.6l-2.72,1.779l2.04,2.461l1.771-0.41l0.95-1.23L33.77,404.6L33.77,404.6z"></path>
  </g>
  <g>
    <path class="country" id="mexico" fill="#84C47B" d="M137.49,225.43l4.83,15.21l-2.25,1.26l0.25,3.021l4.25,3.27v6.05l5.25,5.04l-2.25-14.858   l-3-9.83l0.75-6.8l2.5,0.25l1,2.27l-1,5.79l13,25.44v9.068l10.5,12.34l11.5,5.29l4.75-2.77l6.75,5.54l4-4.03l-1.75-4.54l5.75-1.76   l1.75,1.01l1.75-1.76h2.75l5-8.82l-2.5-2.27l-9.75,2.27l-2.25,6.55l-5.75,1.012l-6.75-2.771l-3-9.568l2.27-12.07l-4.64-2.892   l-2.21-11.59l-1.852-0.79l-3.38,3.432l-3.88-2.07l-1.521-7.729l-15.369-1.609l-7.94-5.97L137.49,225.43L137.49,225.43z"></path>
    <path class="country" id="guadeloupe" fill="#84C47B" d="M276.6,283.37l-1.5,0.618l0.53,1.33l1.76-1.148l-0.35-0.36L276.6,283.37L276.6,283.37z"></path>
    <path class="country" id="dominica" fill="#84C47B" d="M279.07,284.88l-0.88,1.87l1.06,1.42l1.32-1.15L279.07,284.88L279.07,284.88z"></path>
    <path class="country" id="martinique" fill="#84C47B" d="M282.07,290.03l-1.062,0.98l0.79,1.6l1.5-0.438L282.07,290.03L282.07,290.03z"></path>
    <path class="country" id="st._lucia" fill="#84C47B" d="M281.98,294.03l-0.71,1.512l1.15,1.238l1.5-0.8L281.98,294.03L281.98,294.03z"></path>
    <path class="country" id="st._vincent" fill="#84C47B" d="M282.07,297.85l-1.23,0.89l0.97,1.78l1.59-0.89L282.07,297.85L282.07,297.85z"></path>
    <path class="country" id="grenada" fill="#84C47B" d="M280.57,301.31l-1.15,1.15l0.44,0.71h1.41l0.44-1.16L280.57,301.31L280.57,301.31z"></path>
    <path class="country" id="trinidad" fill="#84C47B" d="M282.24,304.78l-1.062,0.98l-1.148,0.18v1.42l2.12,1.95l0.88-1.42l0.529-1.6l-0.18-1.33   L282.24,304.78L282.24,304.78z"></path>
    <path class="country" id="puerto_rico" fill="#84C47B" d="M271.05,281.06l-2.64-0.89l-2.12,1.33l1.06,1.238l3.61,0.53L271.05,281.06L271.05,281.06z   "></path>
    <path class="country" id="haiti-dominican_border" fill="#84C47B" d="M250.87,275.38l-1.67,1.71l1.91,0.78l0.278,2.39l-4.229,0.37l0.43,2.3   l1.23,0.09l0.71-1.06l4.938,0.16l0.892,1.71l1.14-1.342l3.33-0.898l2.93,0.62l0.34-1.771l-5.279-3.45l-3.42-1.278L250.87,275.38   L250.87,275.38z"></path>
    <path class="country" id="domincan_republic" fill="#84C47B" d="M263.11,280.44l-5.29-3.46l-2.5-0.85l-0.84,6l0.88,1.688l1.15-1.33l3.35-0.89   l2.91,0.62L263.11,280.44L263.11,280.44z"></path>
    <path class="country" id="haiti" fill="#84C47B" d="M250.86,275.38l3.438,0.358l-0.41,4.222l-0.34,2.22l-4.01-0.22l-0.71,1.068l-1.23-0.09   l-0.44-2.31l4.229-0.352l-0.26-2.398l-1.939-0.8L250.86,275.38L250.86,275.38z"></path>
    <path class="country" id="falklands_west" fill="#84C47B" d="M307.95,508.18l-2.63-0.29l-2.62,1.76l1.899,2.06L307.95,508.18L307.95,508.18z"></path>
    <path class="country" id="falklands_east" fill="#84C47B" d="M310.57,506.86l-0.87,2.79l-2.48,2.2l0.15,0.73l4.229-1.621l1.75-2.199L310.57,506.86   L310.57,506.86z"></path>
    <path class="country" id="cuba" fill="#84C47B" d="M220.85,266.92v1.27l5.32,0.102l2.51-1.46l0.392,1.068l5.22,1.271l4.64,4.188l-1.06,1.46   l0.19,1.66l3.87,0.97l3.87-1.75l1.74-1.75l-2.51-1.27l-12.95-7.6l-4.54-0.49L220.85,266.92L220.85,266.92z"></path>
    <path class="country" id="jamaica" fill="#84C47B" d="M238.93,279.59l-3.479,0.88v0.97l2.03,1.17h2.13l1.35-1.56L238.93,279.59L238.93,279.59z"></path>
    <path class="country" id="galapagos" fill="#84C47B" d="M194.97,338.18l-0.62,2.75l-1.149,1.16l0.79,1.42l2.03-0.801l0.97-1.689l-0.62-1.78   L194.97,338.18L194.97,338.18z"></path>
    <path class="country" id="guatemala" fill="#84C47B" d="M194.88,291.52l5.93,4.34l5.98-7.43l-1.02-1.54l-2.04-0.07v-4.35l-1.53-0.93l-4.63,1.38   l1.77,4.08L194.88,291.52L194.88,291.52z"></path>
    <path class="country" id="honduras" fill="#84C47B" d="M207.55,288.78l9.24-0.35l2.74,3.26l-1.71-0.39l-3.29,0.14l-4.3,4.04l-1.84,4.09l-1.21-0.64   l-0.01-4.48l-2.66-1.778L207.55,288.78L207.55,288.78z"></path>
    <path class="country" id="el_salvador" fill="#84C47B" d="M201.65,296.27l4.7,2.34l-0.069-3.71l-2.41-1.47L201.65,296.27L201.65,296.27z"></path>
    <path class="country" id="nicaragua" fill="#84C47B" d="M217.74,292.11l2.188,0.44l0.07,4.49l-2.55,7.278l-6.87-0.68l-1.53-3.51l2.04-4.262   l3.87-3.6L217.74,292.11L217.74,292.11z"></path>
    <path class="country" id="costa_rica" fill="#84C47B" d="M217.38,304.98l1.39,2.72l1.13,1.5l-1.52,4.51l-2.9-2.039l-4.74-4.34v-2.869L217.38,304.98   L217.38,304.98z"></path>
    <path class="country" id="panama" fill="#84C47B" d="M220.59,309.61l-1.46,4.561l4.82,1.25l2.99,0.591l0.51-3.53l3.21-1.62l2.85,1.472l1.12,1.789   l1.36-0.16l1.069-3.25l-3.56-1.471l-2.7-1.47l-2.7,1.84l-3.21,1.62l-3.279-1.32L220.59,309.61L220.59,309.61z"></path>
    <path class="country" id="colombia" fill="#84C47B" d="M253.73,299.78l-2.06-0.21l-13.62,11.23l-1.438,3.95l-1.86,0.209l0.83,8.729l-4.75,11.65   l5.16,4.368l6.61,0.422l4.54,6.658L253.74,347l-0.21,4.988H256l2.68-9.148l-2.479-3.12l0.62-5.82l5.16-0.42l-0.62-13.521   l-11.561-3.739l-2.68-7.28L253.73,299.78L253.73,299.78z"></path>
    <path class="country" id="venezuela" fill="#84C47B" d="M250.46,305.92l0.44,2.59l3.25,1.029l0.74-4.771l3.431-3.55l3.43,4.02l7.89,2.15l6.681-1.4   l4.55,5.61l3.43,2.149l-3.76,5.729l1.26,4.34l-2.15,2.66l-2.23,1.87l-4.83-2.43l-1.11,1.119v3.461l3.53,1.68l-2.6,2.81   l-2.601,2.812l-3.43-0.28l-3.45-3.79l-0.729-14.26l-11.78-4.021l-2.14-6.27L250.46,305.92L250.46,305.92z"></path>
    <path class="country" id="guyana" fill="#84C47B" d="M285.05,314.129l7.22,6.541l-2.87,3.318l-0.23,1.971l3.77,3.891l-0.09,3.74l-6.56,2.5   l-3.93-5.312l0.84-6.38l-1.68-4.75L285.05,314.129L285.05,314.129z"></path>
    <path class="country" id="suriname" fill="#84C47B" d="M293.13,321.14l2.04,1.87l3.16-1.96l2.88,0.09l-0.37,1.12l-1.21,2.52l-0.19,6.271l-5.75,2.34   l0.28-4.021l-3.71-3.46l0.19-1.78L293.13,321.14L293.13,321.14z"></path>
    <path class="country" id="guyane" fill="#84C47B" d="M302.13,321.8l5.85,3.648l-3.06,6.08l-1.11,1.4l-3.25-1.87l0.09-6.55L302.13,321.8   L302.13,321.8z"></path>
    <path class="country" id="ecuador" fill="#84C47B" d="M230.2,335.85l-4.73,2.939l-0.34,4.359l-0.95,1.432l2.98,2.858l-1.29,1.41l0.3,3.6l5.33,1.271   l8.07-9.55l-0.021-3.33l-3.87-0.25L230.2,335.85L230.2,335.85z"></path>
    <path class="country" id="peru" fill="#84C47B" d="M225.03,349.52l-1.94,1.96l0.13,3.13l16.94,30.88l17.59,11.341l2.72-4.561l0.65-10.03l-1.42-6.25   l-4.79-8.08l-2.851,0.91l-1.29,1.431l-5.69-6.521l1.42-7.69l6.6-4.3l-0.52-4.04l-6.72-0.26l-3.49-5.859l-1.94-0.649l0.13,3.52   l-8.66,10.29l-6.47-1.56L225.03,349.52L225.03,349.52z"></path>
    <path class="country" id="bolivia" fill="#84C47B" d="M258.71,372.789l8.23-3.591l2.72,0.261l1.81,7.561l12.54,4.17l2.07,6.391l5.17,0.649l2.2,5.47   l-1.55,4.95l-8.41,0.65l-3.101,7.95l-6.6-0.131l-2.07-0.391l-3.81,3.7l-1.88-0.181l-6.471-14.989l1.79-2.681l0.63-10.601l-1.6-6.31   L258.71,372.789L258.71,372.789z"></path>
    <path class="country" id="paraguay" fill="#84C47B" d="M291.76,399.51l2.2,2.398l-0.26,5.08l6.34-0.39l4.79,6.13l-0.39,5.47l-3.1,4.69l-6.34,0.26   l-0.26-2.609l1.81-4.301l-6.21-3.908h-5.17l-3.88-4.172l2.82-8.06L291.76,399.51L291.76,399.51z"></path>
    <path class="country" id="uruguay" fill="#84C47B" d="M300.36,431.93l-2.05,2.188l0.851,11.78l6.439,1.87l8.19-8.21L300.36,431.93L300.36,431.93z"></path>
    <path class="country" id="argentina" fill="#84C47B" d="M305.47,418.198l1.94,1.82l-7.37,10.95l-2.59,2.87l0.899,12.51l5.69,6.91l-4.78,8.34   l-3.62,1.562h-4.14l1.16,6.51l-6.47,2.22l1.55,5.47l-3.88,12.38l4.79,3.91l-2.59,6.38l-4.399,6.91l2.33,4.82l-5.69,0.91l-4.66-5.73   l-0.78-17.85l-7.24-30.32l2.189-10.6l-4.66-13.551l3.1-17.591l2.85-3.39l-0.7-2.57l3.66-3.34l8.16,0.561l4.562,4.869l5.27,0.092   l5.4,3.3l-1.59,3.72l0.38,3.76l7.648-0.359L305.47,418.198L305.47,418.198z"></path>
    <path class="country" id="tierra_del_fuego_chile" fill="#84C47B" d="M285.04,514.1l-4.27,9.38l7.37,0.78l0.13-6.25L285.04,514.1L285.04,514.1z"></path>
    <path class="country" id="tierra_del_fuego_argentina" fill="#84C47B" d="M288.92,518.789l0.26,5.729l4.4-0.392l3.75-2.479l-6.34-1.3   L288.92,518.789L288.92,518.789z"></path>
    <path class="country" id="chile" fill="#84C47B" d="M283.59,512.629l-3.21,3.551l-0.39,4.17l-6.21-3.52l-6.602-9.512l-1.938-3.39l2.72-3.521   l-0.26-4.43l-3.101-1.3l-2.46-1.82l0.521-2.48l3.229-0.908l0.65-14.33l-5.04-2.87l-3.29-74.59l0.85-1.48l6.44,14.852l2.06,0.04   l0.67,2.369l-2.74,3.319l-3.15,17.87l4.48,13.76l-2.07,10.422l7.3,30.64l0.771,17.92l5.229,6.05L283.59,512.629L283.59,512.629z"></path>
    <path class="country" id="chiloe" fill="#84C47B" d="M262.28,475.14l-1.29,1.95l0.648,3.39l1.29,0.13l0.65-4.3L262.28,475.14L262.28,475.14z"></path>
    <path class="country" id="brazil" fill="#84C47B" d="M314.24,438.85l6.25-12.02l0.229-10.102l11.66-7.521h6.53l5.13-8.688l0.93-16.68l-2.1-4.46   l12.36-11.28l0.47-12.45l-16.79-8.22l-20.28-6.34l-9.561-0.94l2.569-5.398l-0.699-8.222l-2.091-0.688l-3.09,6.14l-1.62,2.03   l-4.159-1.84l-13.99,4.93l-4.66-5.87l0.75-6.13l-4.4,4.48l-4.859-2.621l-0.489,0.689l0.01,2.13l4.19,2.25l-6.29,6.632l-3.97-0.041   l-4.02-4.091l-4.55,0.142l-0.561,4.858l2.61,3.171l-3.08,9.869l-3.6,0.28l-5.73,3.62l-1.399,7.109l4.97,5.319l0.91-1.03l3.49-0.938   l2.98,5.02l8.53-3.659l3.31,0.189l2.28,8.07l12.17,3.859l2.1,6.439l5.181,0.62l2.47,6.148l-1.67,5.472l2.18,2.858l-0.32,4.261   l5.839-0.55l5.351,6.761l-0.42,4.75l3.17,2.68l-7.601,11.51L314.24,438.85L314.24,438.85z"></path>
    <path class="country" id="belize" fill="#84C47B" d="M204.56,282.4l-0.05,3.65h0.84l2.86-5.34h-1.94L204.56,282.4L204.56,282.4z"></path>
  </g>
  <g class="asia">
    <path class="country" id="kalimantan" fill="#84C47B" d="M781.68,324.4l-2.31,8.681l-12.53,4.229l-3.75-4.4l-1.82,0.5l3.4,13.12l5.09,0.57   l6.79,2.57v2.568l3.11-0.568l4.529-6.271v-5.13l2.551-5.13l2.83,0.568l-3.4-7.129l-0.52-4.591L781.68,324.4L781.68,324.4z"></path>
    <path class="country" id="sumatra" fill="#84C47B" d="M722.48,317.57l-0.28,2.28l6.79,11.41h1.979l14.15,23.67l5.658,0.57l2.83-8.271l-4.528-2.85   l-0.851-4.562L722.48,317.57L722.48,317.57z"></path>
    <path class="country" id="east_malaysia" fill="#84C47B" d="M764.141,332.92l3.021,3.488l11.58-4.01l2.29-8.84l5.158-0.37l4.722-3.42l-6.12-4.46   l-1.4-2.45l-3.02,5.57l1.109,3.198l-1.841,2.672l-3.47-0.892l-8.41,6.171l0.221,3.569L764.141,332.92L764.141,332.92z"></path>
    <path class="country" id="sulawesi" fill="#84C47B" d="M789.53,349.11l2.26,2.77l-1.47,4.16v0.791h3.34l1.18-10.399l1.08,0.3l1.96,9.5l1.87,0.5   l1.77-4.061l-1.77-6.141l-1.47-2.67l4.62-3.37L801.82,339l-4.42,2.868h-1.181l-2.159-3.17l0.688-1.39l3.642-1.78l5.5,1.681   l1.67-0.101l4.129-3.858l-1.67-1.682l-3.83,2.971h-2.459L798,332.76l-2.65,0.1l-2.949,4.75l-1.869,8.221L789.53,349.11   L789.53,349.11z"></path>
    <path class="country" id="maluku" fill="#84C47B" d="M814.189,330.5l-1.869,4.55l2.949,3.858h0.979l1.28-2.568l0.688-0.892l-1.28-1.39l-1.869-0.69   L814.189,330.5L814.189,330.5z"></path>
    <path class="country" id="seram" fill="#84C47B" d="M819.99,345.448l-4.03,0.892l-1.18,1.289l0.979,1.681l2.65-0.99l1.67-0.989l2.46,1.979   l1.08-0.89l-1.96-2.381L819.99,345.448L819.99,345.448z"></path>
    <path class="country" id="java" fill="#84C47B" d="M753.17,358.32l-2.75,1.88l0.59,1.58l8.75,1.98l4.42,0.79l1.87,1.979l5.011,0.4l2.359,1.979   l2.16-0.5l1.97-1.779l-3.64-1.682l-3.141-2.67l-8.16-1.979L753.17,358.32L753.17,358.32z"></path>
    <path class="country" id="bali" fill="#84C47B" d="M781.77,366.93l-2.158,1.188l1.279,1.392l3.141-1.19L781.77,366.93L781.77,366.93z"></path>
    <path class="country" id="lombok" fill="#84C47B" d="M785.5,366.039l0.391,1.881l2.26,0.59l0.881-1.09l-0.98-1.49L785.5,366.039L785.5,366.039z"></path>
    <path class="country" id="sumba" fill="#84C47B" d="M790.91,370.99l-2.75,0.4l2.46,2.08h1.96L790.91,370.99L790.91,370.99z"></path>
    <path class="country" id="flores" fill="#84C47B" d="M791.689,367.72l-0.59,1.188l4.42,0.69l3.439-1.98l-1.96-0.59l-3.142,0.892l-1.18-0.99   L791.689,367.72L791.689,367.72z"></path>
    <path class="country" id="timor" fill="#84C47B" d="M806.141,368.42l-5.109,4.26l0.488,1.09l2.16-0.4l2.551-2.38l5.011-0.688l-0.98-1.682   L806.141,368.42L806.141,368.42z"></path>
    <path class="country" id="palawan" fill="#84C47B" d="M789.37,297.53l-0.86,1.642l-0.479,2.02l-4.78,6.07l0.29,1.25l2.01-0.29l6.21-6.94   L789.37,297.53L789.37,297.53z"></path>
    <path class="country" id="negros" fill="#84C47B" d="M797.109,295.22l-0.101,5.01l1.82,1.83l0.67,3.562l1.82,0.39l0.858-2.22l-1.43-1.062   l-0.38-6.26L797.109,295.22L797.109,295.22z"></path>
    <path class="country" id="cebu" fill="#84C47B" d="M802.28,297.15l-0.102,4.432l1.052,1.729l1.818-2.12l-0.479-3.85L802.28,297.15L802.28,297.15z"></path>
    <path class="country" id="samar" fill="#84C47B" d="M803.42,293.29l1.82,2.408l0.859,2.312h1.631l-0.291-3.95l-1.819-1.25L803.42,293.29   L803.42,293.29z"></path>
    <path class="country" id="path7462" fill="#84C47B" d="M806.96,302.35l0.38,2.89l-3.35,2.7l-2.771,0.29l-2.96,3.181l0.101,1.449l2.771-0.87   l1.91-1.25l1.63,4.142l2.87,2.02l1.149-0.39l1.051-1.25l-2.29-2.312l1.34-1.06l1.53,1.25l1.05-1.729l-1.05-2.121l-0.19-4.72   L806.96,302.35L806.96,302.35z"></path>
    <path class="country" id="luzon" fill="#84C47B" d="M791.38,272.97l-2.58,1.83l-0.29,5.78l4.021,7.8l1.34,1.06l1.72-1.16l2.96,0.48l0.57,2.6   l2.2,0.19l1.05-1.44l-1.34-1.83l-1.631-1.54l-3.439-0.38l-1.818-2.988l2.1-3.182l0.189-2.79l-1.431-3.56L791.38,272.97   L791.38,272.97z"></path>
    <path class="country" id="mindoro" fill="#84C47B" d="M792.72,290.21l0.761,2.698l1.341,0.87l0.96-1.25l-1.53-2.12L792.72,290.21L792.72,290.21z"></path>
    <path class="country" id="hainan" fill="#84C47B" d="M759.83,270.17l-2.391,0.67l-1.721,2.12l1.432,2.79l2.1,0.188l2.391-2.12l0.569-2.79   L759.83,270.17L759.83,270.17z"></path>
    <path class="country" id="taiwan" fill="#84C47B" d="M787.46,248.31l-3.54,2.7l-0.189,5.2l3.061,3.56l0.76-0.67L787.46,248.31L787.46,248.31z"></path>
    <path class="country" id="kyushu" fill="#84C47B" d="M803.23,216.42l-1.631,1.64l0.67,2.312l1.431,0.1l0.96,5.01l1.15,1.25l2.01-1.83l0.859-3.278   l-2.49-3.562L803.23,216.42L803.23,216.42z"></path>
    <path class="country" id="shikoku" fill="#84C47B" d="M812.03,213.15l-2.771,2.602l-0.1,2.988l0.67,0.87l3.729-3.18l-0.291-3.18L812.03,213.15   L812.03,213.15z"></path>
    <path class="country" id="honshu" fill="#84C47B" d="M808.2,206.98l-4.88,5.59l0.858,1.352l2.392,0.29l4.49-3.472l3.158-0.58l2.87,3.37l2.2-0.77   l0.859-3.28l4.109-0.1l4.021-4.82l-2.102-8l-0.96-4.24l2.101-1.729l-4.779-7.222l-1.24,0.102l-2.58,2.89v2.41l1.15,1.351   l0.38,6.359l-2.96,3.66l-1.721-1.06l-1.34,2.988l-0.291,2.79l1.052,1.642l-0.671,1.25l-2.199-1.83h-1.53l-1.34,0.77L808.2,206.98   L808.2,206.98z"></path>
    <path class="country" id="hokkaido" fill="#84C47B" d="M816.43,163.44l-1.529,1.352l0.771,2.89l1.34,1.35l-0.1,4.432l-1.722,0.67l-1.34,2.99   l3.92,5.39l2.58-0.87l0.48-1.35l-2.77-2.5l1.72-2.222l1.818,0.29l1.432,1.54l0.1-3.18l3.92-3.18l2.2-0.58l-1.82-3.08l-0.859-1.352   l-1.431,0.96l-1.239,1.54l-2.681-0.58l-2.771-1.828L816.43,163.44L816.43,163.44z"></path>
    <path class="country" id="iturup" fill="#84C47B" d="M830.859,160.448l-2.681,3.762l0.19,1.83l1.34-0.58l3.15-3.95L830.859,160.448L830.859,160.448   z"></path>
    <path class="country" id="urup" fill="#84C47B" d="M834.4,154.96l-0.961,2.6l0.101,1.73l1.63-1.062l1.53-3.08V154L834.4,154.96L834.4,154.96z"></path>
    <path class="country" id="male" fill="#84C47B" d="M656.4,320.76l0.3,2.609l1.67,0.609l0.3-2.3L656.4,320.76L656.4,320.76z"></path>
    <path class="country" id="maldive" fill="#84C47B" d="M658.53,326.28l-0.15,3.221l1.22,0.609l1.07-2.15L658.53,326.28L658.53,326.28z"></path>
    <path class="country" id="gan" fill="#84C47B" d="M658.84,332.57l-1.07,1.07l1.222,1.069l1.52-1.069L658.84,332.57L658.84,332.57z"></path>
    <path class="country" id="sri_lanka" fill="#84C47B" d="M680.54,308.05l0.25,2.72l0.25,1.98l-1.47,0.25l0.74,4.448l2.209,1.24l3.431-1.979   l-0.98-4.689l0.25-1.73l-3.188-2.959L680.54,308.05L680.54,308.05z"></path>
    <path class="country" id="irian_jaya" fill="#84C47B" d="M831.93,339.34l-4.17,0.47l-2.68,1.96l1.109,2.24l4.541,0.84v0.84l-2.871,2.33l1.391,4.85   l1.391,0.09l1.199-4.76h2.221l0.931,4.66l10.83,8.96l0.278,7l3.7,4.011l1.67-0.091l0.37-24.72l-6.29-4.38l-5.93,4.01l-2.13,1.31   l-3.521-2.238l-0.09-7.092L831.93,339.34L831.93,339.34z"></path>
    <path class="country" id="china" fill="#84C47B" d="M670.4,170.07l-3.461,8.7l-4.771-0.25l-5.03,11.01l4.271,5.44l-8.801,12.15l-4.521-0.762   l-3.021,3.8l0.75,2.28l3.521,0.25l1.76,4.05l3.521,0.762l10.81,13.93v7.09l5.28,3.29l5.78-1.01l7.29,4.3l8.8,2.53l4.27-0.51   l4.78-0.512l10.05-6.58l3.271,0.512l1.25,2.97l2.771,0.83l3.771,5.568l-2.51,5.57l1.51,3.8l4.27,1.521l0.75,4.56l5.03,0.512   l0.75-2.28l7.29-3.8l4.52,0.25l5.28,5.818l3.521-1.52l2.26,0.25l1.01,2.79l1.761,0.25l2.511-3.54l10.05-3.8l9.05-10.892   l3.021-10.38l-0.25-6.84l-3.771-0.76l2.261-2.53l-0.5-4.05L771,215.22v-4.811l2.76-3.539l2.762-1.271l0.25-2.79h-7.041l-1.26,3.8   l-3.271-0.76l-4.021-4.3l2.511-6.58l3.521-3.8l3.271,0.25l-0.5,5.818l1.761,1.521l4.27-4.3l1.511-0.25l-0.5-3.29l4.021-4.812   l3.021,0.25l1.761-5.568l2.061-1.091l0.209-3.471l-2-2.1l-0.17-5.48l3.851-0.25l-0.25-14.13l-2.699,1.62l-1.01,3.62l-4.511-0.01   l-13.069-7.352l-9.44-11.38l-9.579-0.1l-2.439,2.12l3.1,7.1l-1.08,6.66l-3.859,1.6l-2.17-0.17l-0.16,6.59l2.261,0.512l4.021-1.771   l5.279,2.53v2.529l-3.77,0.25l-3.021,6.579l-2.76,0.25l-9.801,12.91l-10.301,4.562l-7.039,0.51l-4.771-3.29l-6.79,3.55l-7.29-2.279   l-1.76-4.811l-12.311-0.76l-6.53-10.63h-2.761l-2.219-4.932L670.4,170.07z"></path>
    <path class="country" id="mongolia" fill="#84C47B" d="M673.8,170.17l5.82-7.722l6.989,3.23l4.75,1.27l5.819-5.34l-3.948-2.91l2.6-3.67l7.76,2.74   l2.69,4.41l4.858,0.13l2.54-1.89l5.23-0.21l1.14,1.938l8.69,0.44l5.5-5.61l7.608,0.8l-0.438,7.642l3.33,0.76l4.09-1.86l4.33,2.142   l-0.101,1.08l-3.141,0.09l-3.27,6.858l-2.541,0.25l-9.879,12.91l-10.092,4.45l-6.31,0.49l-5.24-3.38l-6.7,3.58l-6.6-2.052   l-1.87-4.79l-12.5-0.88l-6.399-10.85l-3.109-0.2L673.8,170.17L673.8,170.17z"></path>
    <path class="country" id="north_korea" fill="#84C47B" d="M778.28,194.27l1.84,0.771l0.56,6.438l3.65,0.21l3.439-4.03l-1.189-1.06l0.141-4.32   l3.159-3.818l-1.61-2.9l1.052-1.2l0.58-3l-1.83-0.83l-1.562,0.79l-1.93,5.86l-3.12-0.271l-3.61,4.262L778.28,194.27L778.28,194.27z   "></path>
    <path class="country" id="south_korea" fill="#84C47B" d="M788.34,198.198l6.18,5.04l1.052,4.882l-0.211,2.618l-3.021,3.4l-2.6,0.14l-2.95-6.37   l-1.12-3.038l1.189-0.922l-0.279-1.27l-1.471-0.66L788.34,198.198L788.34,198.198z"></path>
    <path class="country" id="kazakhstan" fill="#84C47B" d="M576.689,188.62l4.101-1.75l4.58-0.16l0.319,7h-2.681l-2.05,3.34l2.682,4.45l3.948,2.229   l0.36,2.55l1.449-0.479l1.341-1.59l2.21,0.479l1.109,2.23h2.841v-2.86l-1.74-5.09l-0.79-4.13l5.05-2.23l6.79,1.11l4.262,4.29   l9.629-0.95l5.371,7.63l6.31,0.32l1.739-2.86l2.211-0.479l0.318-3.182l3.312-0.158l1.739,2.068l1.739-4.13l14.99,2.07l2.521-3.34   l-4.261-5.25l5.681-12.4l4.58,0.32l3.159-7.63l-6.31-0.642l-3.63-3.5l-10,1.16l-12.882-12.45l-4.539,4.03l-13.771-6.25   l-16.89,8.271l-0.471,5.881l3.95,4.608l-7.7,4.352l-9.989-0.222l-2.091-3.068l-7.83-0.432l-7.42,4.771l-0.159,6.52L576.689,188.62   L576.689,188.62z"></path>
    <path class="country" id="turkmenistan" fill="#84C47B" d="M593.85,207.59l-0.619,2.63h-4.149v3.56l4.46,2.94l-1.38,4.03v1.858l1.85,0.312   l2.46-3.25l5.54-1.24l11.841,4.49l0.149,3.25l6.608,0.62l7.382-7.75l-0.92-2.48l-4.921-1.08l-13.84-8.99l-0.621-3.25h-5.229   l-2.311,4.342h-2.311L593.85,207.59L593.85,207.59z"></path>
    <path class="country" id="uzbekistan" fill="#84C47B" d="M628.92,219.06l3.08,0.16v-5.271l-2.92-1.698l4.92-6.2h2l2,2.33l5.23-2.01l-7.23-2.48   l-0.28-1.5l-1.72,0.42l-1.689,2.94l-7.291-0.24l-5.35-7.57l-9.4,0.932l-4.479-4.44l-6.2-1.05l-4.5,1.83l2.61,8.68l0.029,2.92   l1.899,0.04l2.33-4.44l6.2,0.08l0.92,3.41l13.29,8.82l5.14,1.18L628.92,219.06L628.92,219.06z"></path>
    <path class="country" id="tajikistan" fill="#84C47B" d="M630.189,211.84l4.109-5.102h1.551l0.539,1.142l-1.898,1.38v1.14l1.25,0.9l6.01,0.358   l1.96-0.84L644.6,211l0.602,1.92l3.568,0.358l1.791,3.78l-0.541,1.14l-0.709,0.062l-0.711-1.44l-1.55-0.12l-2.68,0.36l-0.181,2.521   l-2.681-0.182l0.12-3.18l-1.96-1.92l-2.979,2.46l0.061,1.62l-2.62,0.898h-1.55l0.12-5.58L630.189,211.84L630.189,211.84z"></path>
    <path class="country" id="kirgizstan" fill="#84C47B" d="M636.811,199.21l-0.311,2.528l0.25,1.562l8.7,2.92l-7.64,3.08l-0.871-0.72l-1.649,1.06   l0.08,0.58l0.88,0.4l5.359,0.14l2.721-0.82l3.49-4.398l4.369,0.76l5.271-7.3l-14.101-1.92l-1.949,4.729l-2.46-2.64L636.811,199.21   L636.811,199.21z"></path>
    <path class="country" id="afghanistan" fill="#84C47B" d="M614.12,227.05l1.59,12.46l3.96,0.87l0.37,2.24l-2.84,2.368l5.29,4.271l10.279-3.7   l0.819-4.38l6.472-4.04l2.479-9.36l1.85-1.988l-1.92-3.342l6.262-3.868l-0.802-1.12l-2.89,0.18l-0.26,2.66l-3.881-0.04l-0.069-3.55   l-1.25-1.49l-2.101,1.91l0.061,1.75l-3.17,1.2l-5.852-0.37l-7.6,7.96L614.12,227.05L614.12,227.05z"></path>
    <path class="country" id="pakistan" fill="#84C47B" d="M623.13,249.84l2.601,3.858l-0.25,1.99l-3.461,1.37l-0.25,3.24h3.961l1.359-1.12h7.54   l6.8,5.979l0.87-2.868h5.07l0.12-3.61l-5.19-4.98l1.11-2.738l5.32-0.37l7.17-14.95l-3.961-3.11l-1.479-5.229l9.64-0.87l-5.688-8.1   l-3.03-0.82l-1.24,1.5l-0.93,0.07l-5.689,3.608l1.859,3.12l-2.102,2.24l-2.6,9.59l-6.43,4.11l-0.87,4.488L623.13,249.84   L623.13,249.84z"></path>
    <path class="country" id="india" fill="#84C47B" d="M670.98,313.01l4.58-2.24l2.72-9.84l-0.12-12.08l15.58-16.82v-3.988l3.21-1.25l-0.12-4.61   l-3.46-6.73l1.979-3.608l4.329,3.99l5.562,0.25v2.238l-1.73,1.87l0.37,1l2.97,0.12l0.62,3.36h0.87l2.23-3.99l1.108-10.46l3.71-2.62   l0.12-3.61l-1.479-2.868L711.68,241l-9.199,6.08l0.58,3.908l-6.461-0.02l-2.278-2.79l-1.24,0.16l0.42,3.88l-13.97-1l-8.66-3.86   l-0.46-4.75l-5.771-3.58l-0.069-7.369l-3.961-4.529L651.51,228l0.99,3.96l4.46,3.608l-7.71,15.78l-5.16,0.39l-0.85,1.9l5.08,4.7   l-0.25,4.75l-5.19-0.08l-0.56,2.359l4.31-0.189l0.12,1.87l-3.09,1.62l1.979,3.739l3.83,1.25l2.352-1.739l1.109-3.11l1.359-0.62   l1.61,1.62l-0.49,3.99l-1.11,1.87l0.25,3.239L670.98,313.01L670.98,313.01z"></path>
    <path class="country" id="nepal" fill="#84C47B" d="M671.189,242.56l0.461,4.271l8.08,3.658l12.948,0.96l-0.489-3.13l-8.649-2.38l-7.34-4.37   L671.189,242.56L671.189,242.56z"></path>
    <path class="country" id="bhutan" fill="#84C47B" d="M695.4,248.08l1.55,2.118l5.239,0.04l-0.529-2.898L695.4,248.08L695.4,248.08z"></path>
    <path class="country" id="bangladesh" fill="#84C47B" d="M695.57,253.11l-1.312,2.37l3.4,6.46l0.1,5.04l0.62,1.352l3.99,0.068l2.26-2.17l1.641,0.99   l0.33,3.07l1.311-0.82l0.08-3.92l-1.1-0.13l-0.69-3.33l-2.78-0.102l-0.689-1.85l1.699-2.271l0.03-1.119h-4.94L695.57,253.11   L695.57,253.11z"></path>
    <path class="country" id="burma" fill="#84C47B" d="M729.439,303.65l-2.771-4.438l2.01-2.82l-1.898-3.49l-1.79-0.34l-0.34-5.86l-2.682-5.188   l-0.779,1.24l-1.789,3.04l-2.24,0.34l-1.12-1.471l-0.56-3.949l-1.682-3.16l-6.84-6.45l1.68-1.11l0.312-4.67l2.5-4.199l1.079-10.449   l3.621-2.472l0.119-3.81l2.17,0.72l3.42,4.95l-2.539,5.44l1.709,4.27l4.229,1.66l0.771,4.65l5.681,0.88l-1.57,2.71l-7.159,2.818   l-0.779,4.62l5.26,6.761l0.22,3.609l-1.229,1.24l0.109,1.13l3.921,5.75l0.108,5.97L729.439,303.65L729.439,303.65z"></path>
    <path class="country" id="thailand" fill="#84C47B" d="M730.03,270.47l3.239,4.17v5.07l1.121,0.56l5.148-2.479l1.01,0.34l6.15,7.1l-0.221,4.852   l-2.01-0.342l-1.791-1.13l-1.34,0.11l-2.35,3.938l0.449,2.142l1.899,1.01l-0.108,2.37l-1.341,0.68l-4.591-3.16v-2.818l-1.898-0.11   l-0.78,1.24l-0.4,12.62l2.97,5.42l5.262,5.069l-0.221,1.471l-2.801-0.11l-2.568-3.83h-2.69l-3.358-2.71l-1.012-2.82l1.45-2.369   l0.5-2.141l1.58-2.8l-0.07-6.438l-3.858-5.58l-0.16-0.682l1.25-1.26l-0.29-4.43l-5.14-6.51l0.6-3.75L730.03,270.47L730.03,270.47z"></path>
    <path class="country" id="malaysia" fill="#84C47B" d="M732.71,315.448l2.01,4.511l0.45,5.859l2.69,4.17l6.489,3.94l2.461,0.229l-0.45-4.061   l-2.13-5.18l-3.12-6.631l-0.261,1.159l-3.761-0.17l-2.698-3.88L732.71,315.448L732.71,315.448z"></path>
    <path class="country" id="laos" fill="#84C47B" d="M735.47,262.93l-2.42,1.229l-2.01,5.86l3.36,4.28l-0.562,4.729l0.562,0.23l5.59-2.71l7.5,8.38   l-0.18,5.28l1.629,0.88l4.029-3.271l-0.328-2.59l-11.632-11.05l0.11-1.69l1.45-1.01l-1.011-2.819l-4.811-0.79L735.47,262.93   L735.47,262.93z"></path>
    <path class="country" id="vietnam" fill="#84C47B" d="M745.061,304.448l1.189,1.87l0.22,2.141l3.13,0.341l3.801-5.07l3.58-1.01l1.899-5.18   l-0.89-8.342l-3.69-5.068l-3.89-3.11l-4.95-8.5l3.55-5.938l-5.08-5.83l-4.07-0.182l-3.658,1.972l1.09,4.71l4.88,0.858l1.312,3.63   l-1.722,1.12l0.11,0.9l11.449,11.2l0.449,3.29l-0.688,10.398L745.061,304.448L745.061,304.448z"></path>
    <path class="country" id="cambodia" fill="#84C47B" d="M740.48,299.47l4.09,4.37l7.608-5.642l0.671-8.898l-3.931,2.71l-2.04-1.141l-2.771-0.369   l-1.549-1.092l-0.75,0.04l-2.029,3.33l0.328,1.54l2.062,1.15l-0.25,3.13L740.48,299.47L740.48,299.47z"></path>
  </g>
  <g>
    <path class="country" id="georgia" fill="#84C47B" d="M555.46,204.158l3.271,4.271l4.08,1.88l2.511-0.01l4.31-1.17l1.08-1.69l-12.75-4.77  L555.46,204.158L555.46,204.158z"></path>
    <path class="country" id="armenia" fill="#84C47B" d="M569.72,209.89l4.8,6.26l-1.41,1.65l-3.398-0.59l-4.22-3.78l0.229-2.48L569.72,209.89  L569.72,209.89z"></path>
    <path class="country" id="azerbaijan" fill="#84C47B" d="M571.41,207.72l-1.01,1.72l4.709,6.182l1.641-0.53l2.7,2.83l1.17-4.96l2.93,0.47l-0.12-1.42  l-4.82-4.22l-0.92,2.479L571.41,207.72L571.41,207.72z"></path>
    <path class="country" id="turkey" fill="#84C47B" d="M558.7,209.19l-2.23,2.36l-8.2-0.24l-4.92-2.95l-4.8-0.12l-5.51,3.9l-5.16,0.24l-0.47,2.95  h-5.86l-2.34,2.13v1.18l1.41,1.18v1.302l-0.59,1.538l0.59,1.302l1.88-0.94l1.88,2.01l-0.47,1.42l-0.7,0.95l1.05,1.182l5.16,1.06  l3.63-1.54v-2.24l1.761,0.352l4.221,2.479l4.568-0.71l1.99-1.89l1.29,0.47v2.13h1.761l1.521-2.95l13.358-1.42l5.83-0.71l-1.539-2.02  l-0.029-2.73l1.17-1.398l-4.262-3.42l0.23-2.95h-2.34L558.7,209.19L558.7,209.19z"></path>
  </g>
  <g>
    <path class="country" id="iran" fill="#84C47B" d="M569.65,217.948l-1.222,1.271l0.12,2.01l1.521,2.13l5.39,5.9l-0.819,2.36h-0.939l-0.471,2.358   l3.051,3.9l2.81,0.239l5.632,7.789l3.158,0.24l2.46,1.771l0.12,3.54l9.729,5.67h3.632l2.229-1.892l2.812-0.119l1.64,3.779   l10.51,1.46l0.312-3.858l3.479-1.262l0.16-1.38l-2.771-3.779l-6.17-4.96l3.24-2.949l-0.229-1.301l-4.062-0.631l-1.72-13.698   l-0.2-3.15l-11.01-4.21l-4.88,1.1l-2.73,3.352l-2.42-0.16l-0.699,0.59l-5.391-0.35l-6.8-4.96l-2.53-2.771l-1.16,0.28l-2.09,2.39   L569.65,217.948L569.65,217.948z"></path>
    <path class="country" id="yemen" fill="#84C47B" d="M571.99,289.23l1.438,4.28v4.18l3.462,3.142l24.379-9.932l0.229-2.729l-3.91-7.021l-9.81,3.13   l-5.631,5.54l-6.529-3.858L571.99,289.23L571.99,289.23z"></path>
    <path class="country" id="oman" fill="#84C47B" d="M598.38,280.84l7.39-4.26l1.312-6.25l-1.62-0.932l0.67-6.7l1.41-0.818l1.51,2.37l8.99,4.698v2.61   l-10.891,16.03l-5.011,0.17L598.38,280.84L598.38,280.84z"></path>
    <path class="country" id="emirates" fill="#84C47B" d="M594.01,264.94l0.87,3.48l9.86,0.87l0.688-7.142l1.9-1.04l0.521-2.608l-3.109,0.87   l-3.46,5.229L594.01,264.94L594.01,264.94z"></path>
    <path class="country" id="qatar" fill="#84C47B" d="M592.63,259.02l-0.521,4.01l1.541,1.17l1.398-0.13l0.521-5.05l-1.211-0.87L592.63,259.02   L592.63,259.02z"></path>
    <path class="country" id="saudi" fill="#84C47B" d="M584,253.24l7.01,9.771l2.26,1.8l1.012,4.38l10.79,0.852l1.22,0.64l-1.21,5.4l-7.09,4.18   l-10.37,3.14l-5.53,5.4l-6.569-3.83l-3.979,3.479L566,279.4l-3.8-1.74l-1.38-2.09v-4.528l-13.83-16.722l-0.521-2.96h3.98l4.84-4.18   l0.17-2.09l-1.38-1.392l2.771-2.26l5.881,0.352l10.028,8.358l5.92-0.27l0.382,1.46L584,253.24L584,253.24z"></path>
    <path class="country" id="syria" fill="#84C47B" d="M546.67,229.13l-0.35,2.54l2.82,1.18l-0.121,7.04l2.819-0.06l2.82-2.132l1.06-0.18l6.4-5.09   l1.29-7.39l-12.79,1.3l-1.352,2.96L546.67,229.13L546.67,229.13z"></path>
    <path class="country" id="iraq" fill="#84C47B" d="M564.311,225.03l-1.561,7.71l-6.46,5.382l0.41,2.538l6.31,0.432l10.051,8.18l5.619-0.16   l0.15-1.89l2.061-2.21l2.879,1.63l0.381-0.36l-5.569-7.409l-2.642-0.159l-3.51-4.512l0.7-3.318l1.07-0.142l0.37-1.47l-4.78-5.03   L564.311,225.03L564.311,225.03z"></path>
    <path class="country" id="jordan" fill="#84C47B" d="M548.9,240.78l-2.461,8.58l-0.109,1.312h3.87l4.33-3.82l0.11-1.45l-1.771-1.81l3.17-2.63   l-0.46-2.44l-0.87,0.2l-2.641,1.89L548.9,240.78L548.9,240.78z"></path>
    <path class="country" id="lebanon" fill="#84C47B" d="M546.2,232.44l0.06,1.95l-0.82,2.96l2.82,0.24l0.18-4.2L546.2,232.44L546.2,232.44z"></path>
    <path class="country" id="israel" fill="#84C47B" d="M545.32,238.06l-1.58,5.03l2.05,6.03l2.35-8.812v-1.89L545.32,238.06L545.32,238.06z"></path>
    <path class="country" id="kuwait" fill="#84C47B" d="M583.29,247.17l-2.25-1.222l-1.56,1.57l0.17,3.14l3.63,1.392L583.29,247.17L583.29,247.17z"></path>
  </g>
  <g>
    <path class="country" id="cyprus" fill="#84C47B" d="M543.21,229.84l1.229,0.89l-3.811,3.61l-1.818-0.062l-1.352-0.948l0.182-1.771l2.76-0.18  L543.21,229.84L543.21,229.84z"></path>
    <path class="country" id="britain" fill="#84C47B" d="M446.12,149.08l-1.83,2.77l0.729,1.11h4.221v1.85l-1.1,1.48l0.729,3.88l2.38,4.62l1.83,4.25  l2.93,1.108l1.28,2.222l-0.18,2.028l-1.83,1.11l-0.182,0.92l1.28,0.74l-1.1,1.479l-2.57,1.11l-4.95-0.55l-7.71,3.51l-2.569-1.29  l7.341-4.25l-0.921-0.55l-3.851-0.37l2.38-3.51l0.37-2.96l3.12-0.37l-0.55-5.73l-3.67-0.18l-1.102-1.29l0.181-4.25l-2.199,0.18  l2.199-7.39l4.041-2.96L446.12,149.08L446.12,149.08z"></path>
    <path class="country" id="ulster" fill="#84C47B" d="M438.42,161.47l-3.3,0.37l-0.181,2.96l2.201,1.479l2.379-0.55l0.92-1.66L438.42,161.47  L438.42,161.47z"></path>
    <path class="country" id="ireland" fill="#84C47B" d="M439.51,166.55l-0.91,6l-8.068,2.96h-2.57l-1.83-1.29v-1.11l4.04-2.59l-1.1-2.22l0.18-3.142  l3.49,0.182l1.6-3.76l-0.21,3.34l2.71,2.148L439.51,166.55L439.51,166.55z"></path>
  </g>
  <g>
    <path class="country" id="sakhalin" fill="#84C47B" d="M798.641,122.59l-0.091,6.17l7.74,11.95l2.771,10.398l4.879,9.25l1.91,0.67l1.631-1.35   l0.761-2.22l-6.98-7.61l0.19-3.95l1.529-0.67l0.381-2.31l-13.672-19.36L798.641,122.59L798.641,122.59z"></path>
    <path class="country" id="greenland" fill="#84C47B" d="M321.13,50.07l-1.36,2.17l2.45,2.45l-1.09,2.45l3.54,4.62l4.35-1.36l5.71-0.54l6.53,7.07   l4.352,11.69l-3.53,7.34l4.89-0.82l2.72,1.63l0.27,3.54l-5.979,0.271l3.26,3.26l4.08,0.818l-8.97,11.962l-1.09,7.34l1.9,5.979   l-1.36,3.54l2.45,7.61l4.62,5.17l1.36-0.271l2.989-0.818l0.271,4.35l1.899,2.72l3.53-0.27l2.72-10.062l8.16-10.06l12.24-4.89   l7.61-9.521l3.529,1.63h7.34l5.98-5.979l7.34-2.99l0.82-4.62l-4.62-4.08l-4.08-1.358l-2.18-5.71l5.17-2.99l8.16,4.35l2.72-2.99   l-4.35-2.448l9.25-12.512L423.1,62.3l-4.35-0.271l1.63-4.89l5.44-2.45l11.148-9.79l-3.26-3.528l-12.51,1.09l-6.53,6.528l3.812-8.43   l-4.352-1.09l-2.45,4.35l-3.528-2.988l-9.791,1.09l2.721-4.352l16.04-0.54l-4.08-5.438l-17.4-3.26l-7.069,1.09l0.27,3.54   l-7.34-2.45l0.27-2.45l-5.17,1.09l-1.09,2.721l5.44,1.899l-5.71,4.08l-4.08-4.62l-5.71-1.63l-0.82,4.35h-5.71l-2.18-4.618   l-8.97-1.36l-4.89,2.45l-0.27,3.26l-6.25-0.82l-3.811,1.63l0.271,3.812V42.2l-7.07,1.36l-3.26-2.17l-2.181,3.53l3.261,3.54   l6.8-0.82l0.54,2.18l-5.17,2.45L321.13,50.07L321.13,50.07z"></path>
    <path class="country" id="disko" fill="#84C47B" d="M342.89,92.49l1.63,2.45l-0.82,2.99h-1.63l-2.181-2.45l0.54-1.898L342.89,92.49L342.89,92.49z"></path>
    <path class="country" id="milne" fill="#84C47B" d="M410.87,85.69l4.62,1.36l-0.271,3.81l-4.89-2.45l-1.09-1.358L410.87,85.69L410.87,85.69z"></path>
    <path class="country" id="bering_island" fill="#84C47B" d="M852.57,103.42l-1.91,0.188l1.15,1.642l2.39,1.64l0.67-0.77L852.57,103.42   L852.57,103.42z"></path>
    <path class="country" id="medny" fill="#84C47B" d="M856.29,104.58l0.29,1.64l2.96,0.87l0.29-1.16L856.29,104.58L856.29,104.58z"></path>
    <path class="country" id="attu" fill="#84C47B" d="M872.54,110.87l1.25,2.238l2.08-0.14l0.42-1.54L872.54,110.87L872.54,110.87z"></path>
    <path class="country" id="amchitka" fill="#84C47B" d="M893.51,114.37l1.67,3.078l1.25-1.398v-2.102L893.51,114.37L893.51,114.37z"></path>
    <path class="country" id="adak" fill="#84C47B" d="M907.811,104.57l-2.359,3.08l0.55,1.4l2.92-1.82l0.28-1.82L907.811,104.57L907.811,104.57z"></path>
    <path class="country" id="umnak" fill="#84C47B" d="M919.609,94.92l-2.079,2.52l2.22,0.84L919.609,94.92L919.609,94.92z"></path>
    <path class="country" id="unalaska" fill="#84C47B" d="M922.53,90.72l-1.39,2.24l0.14,2.238l1.938-0.84L922.53,90.72L922.53,90.72z"></path>
    <path class="country" id="st._lawrence_island" fill="#84C47B" d="M881.29,38.39l-2.36,1.54l-0.56,1.96l1.11,1.26l2.5-0.84l2.5,0.84l1.39,0.42   l-0.14-4.62L881.29,38.39L881.29,38.39z"></path>
    <path class="country" id="st._lawrence_island_west" fill="#84C47B" d="M69.17,53.35l3.46,6.47l2.22-0.5V57.08L69.17,53.35L69.17,53.35z"></path>
    <path class="country" id="alaska" fill="#84C47B" d="M883.4,17.54l-4.222,7.568l8.08,5.11l9.052-7.59l5.5,9.17l-5.74,1.18l-2.271,5.88l12.71,17.222   l7.65,1.27l11.03,2.17l1.358-4L930.4,57l0.729,16.75L924,85.62l3.439,0.75l8.979-18.922l2.729-14.158l-5.541-2.592l-0.89-19   l4.271,0.83l-0.04,11.432l4.658,4.068l2.722-9.93l-2.181-5.9l6.58,3.15l0.689-34.99L873.66,0.5l-4.36,3.35l0.591,6.771l13.431,1.84   l10.31-2.352l-3.7,6.92L883.4,17.54L883.4,17.54z"></path>
    <path class="country" id="chukotka" fill="#84C47B" d="M1.17,54.948l14.01,1.57l2.34,4.84l11.16-6.54L47.36,52.21l1.3-9.67l9.34-3.4l6.1-5.75v7.84   l6.23,8.5L83.3,41.5L77.07,34.44L69.29,13.4L59.94,2.67L53.32,2.15L53.06,7.9l-5.449,2.75L45.92,7.25l3.24-6.932L1.3,0.448   L1.17,54.948L1.17,54.948z"></path>
    <path class="country" id="wrangel-w" fill="#84C47B" d="M78.49,3.32L74.6,6.85l1.17,2.61l2.08-1.44l1.17,1.312L82.9,7.9l-0.13-2.22L78.49,3.32   L78.49,3.32z"></path>
    <path class="country" id="unalaska_west" fill="#84C47B" d="M49.66,110.26l-0.17,3.01l2.16-0.5v-1.34L49.66,110.26L49.66,110.26z"></path>
    <path class="country" id="umnak_west" fill="#84C47B" d="M46.34,111.6l-4.32,2.18l0.67,2.342l1.66-1.342l3.32-1.51L46.34,111.6L46.34,111.6z"></path>
    <path class="country" id="another_aleutian_west" fill="#84C47B" d="M28.39,114.44l-2.99-0.67l-0.5,1.34l0.33,2.512L28.39,114.44L28.39,114.44z"></path>
    <path class="country" id="adak_west" fill="#84C47B" d="M22.07,114.28l-2.83-1.17l-1,1.84l1.83,1.842L22.07,114.28L22.07,114.28z"></path>
    <path class="country" id="amchitka_west" fill="#84C47B" d="M12.27,111.6l-1.33-1.84l-1.33,0.5v2.51l1.5,1L12.27,111.6L12.27,111.6z"></path>
    <path class="country" id="attu_west" fill="#84C47B" d="M1.47,99.71l1.66,1.17l-0.5,1.34H1.47V99.71L1.47,99.71z"></path>
    <path class="country" id="iceland" fill="#84C47B" d="M406.359,117.31l-1.959-1.11l-2.642,1.672l-2.27,2.1l0.06,1.17l2.94,0.37l-0.181,2.1   l-1.041,1.05l0.25,0.682l2.94,0.188v3.4l4.229,0.74l2.511,1.42l2.819,0.12l4.84-2.41l3.74-4.94l0.061-3.34l-2.27-1.92l-1.9-1.61   l-0.86,0.62l-1.29,1.67l-1.47-0.188l-1.47-1.61l-1.9,0.181l-2.76,2.289l-1.66,1.79l-0.92-0.8l-0.061-1.979l0.92-0.62   L406.359,117.31L406.359,117.31z"></path>
    <path class="country" id="spitsbergen" fill="#84C47B" d="M488.26,53.96l-1.648-1.66l-3.66,1.78h-6.721L475.17,58l3.77,3.33l1.65-0.24l2.36-4.04   l2,1.43l-1.42,2.852l-0.71,4.158l1.648,2.61l3.54-5.94l4.601-5.59l-1.771-1.54L488.26,53.96L488.26,53.96z"></path>
    <path class="country" id="nordaustlandet" fill="#84C47B" d="M490.26,46.83l-2.949,2.729l1.771,2.73h3.18l1.302,1.778l3.89,2.021l4.479-2.61   L505,50.87l-1.061-2.142l-3.069-1.78l-2.24,2.021l-1.53-1.9l-1.18,0.12l-1.529,3.33l-2.239-2.26l-0.24-1.54L490.26,46.83   L490.26,46.83z"></path>
    <path class="country" id="edgeoya" fill="#84C47B" d="M496.98,59.07l-2.36,2.142l-2,1.54l0.94,1.658L495.45,65l3.069-1.432l1.42-1.778l-1.299-2.142   L496.98,59.07L496.98,59.07z"></path>
    <path class="country" id="prince_george" fill="#84C47B" d="M547.82,38.79l1.72,0.688l-1.21,2.08v2.95l-2.58,1.56H543l-1.55-1.91l0.17-2.078   l1.21-1.562h2.41L547.82,38.79L547.82,38.79z"></path>
    <path class="country" id="salisbury" fill="#84C47B" d="M554.359,36.88v2.08l1.721,1.39l2.41-0.17l2.07-1.91v-1.39h-1.892l-1.55,0.52l-1.21-1.39   L554.359,36.88L554.359,36.88z"></path>
    <path class="country" id="wilczek" fill="#84C47B" d="M564.18,37.06l1.211,2.6l2.409,0.172l1.72-0.69l-0.858-2.43l-2.24-0.521L564.18,37.06   L564.18,37.06z"></path>
    <path class="country" id="bell" fill="#84C47B" d="M573.99,33.59L572.1,33.24l-1.72,1.74l0.86,1.562l0.52,2.43l2.24-1.73l0.52-1.908L573.99,33.59   L573.99,33.59z"></path>
    <path class="country" id="novaya_zemlya_north" fill="#84C47B" d="M584.49,51.98l-0.521,2.43l-3.96,3.472l-8.438,1.91L564.68,71.24l-1.21,3.302   l6.89,1.738l1.031-4.158l2.069-6.422l5.34-2.778l4.48-3.472l3.27-1.39h1.72v-4.68L584.49,51.98L584.49,51.98z"></path>
    <path class="country" id="novaya_zemlya_south" fill="#84C47B" d="M562.28,77.31l4.648,0.521l1.552,5.38l3.959,4.16l-1.379,2.778h-2.41l-2.24-2.6   l-4.99-0.17l-2.07-2.78v-1.91l3.102-0.87L562.28,77.31L562.28,77.31z"></path>
    <path class="country" id="komsomolets" fill="#84C47B" d="M634.95,18.15l-2.24-1.39h-2.58l-0.521,1.56l-2.75,1.562l-2.069,0.688l-0.34,2.08   L629.27,23L634.95,18.15L634.95,18.15z"></path>
    <path class="country" id="october" fill="#84C47B" d="M640.28,18.67l-1.21,2.6l-2.41-0.17l-3.79,2.78l-1.03,3.47h2.41l1.38-2.26l3.271,2.43   l3.101-1.39l2.24-1.91l-0.86-2.95l-1.21-2.08L640.28,18.67L640.28,18.67z"></path>
    <path class="country" id="bolshevik" fill="#84C47B" d="M645.28,20.58l1.21,4.858l1.89,4.51l2.07-3.64l3.96-0.87v-2.6l-2.58-1.91L645.28,20.58   L645.28,20.58z"></path>
    <path class="country" id="kotelny" fill="#84C47B" d="M739.76,12.8l2.69,2.26l1.909-0.79l0.561-3.17L741,8.39l-2.58,1.7l-6.28,0.568v2.83   l-6.62,0.11v4.63l7.74,5.76l2.021-1.47l-0.45-4.07l4.938-1.238l-1.01-1.92l-1.79-1.812L739.76,12.8L739.76,12.8z"></path>
    <path class="country" id="novaya_sibir" fill="#84C47B" d="M746.939,10.09l1.791,3.39l6.959-0.79l1.91-2.49L757.15,8.05l-1.91-0.79l-1.79,1.36   l-5.16,1.13L746.939,10.09L746.939,10.09z"></path>
    <path class="country" id="lyakhovsky" fill="#84C47B" d="M746.49,23.31l-3.48-0.9L741,24.56l-0.9,2.94l4.711-0.45l3.59-1.812L746.49,23.31   L746.49,23.31z"></path>
    <path class="country" id="wrangel" fill="#84C47B" d="M836.68,3.76l-2.92-0.9L830.4,4.1l-1.682,2.49l2.131,2.83l5.609-2.49l1.12-1.24L836.68,3.76   L836.68,3.76z"></path>
    <path class="country" id="alaska_1_" fill="#84C47B" d="M93.11,44.89l-8.392,1.99l1.73,9.45l9.13,2.488l0.49,1.99L82.5,65.04l-7.65,12.68   l2.71,13.43L82,94.13l3.46-3.23l0.99,1.99l-4.2,4.97l-16.29,7.46l-10.37,2.49l-0.25,3.73l23.94-6.96l9.87-2.74l9.13-11.19   l10.12-6.71l-5.18,8.7l5.68,0.75l9.63-4.23l1.729,6.96l6.66,1.49l6.91,6.71l0.49,4.972l-0.99,1.238l1.23,4.722h1.73l0.25-7.96h1.97   l0.49,19.64l4.94-4.23l-3.46-20.39h-5.181l-5.68-7.21l27.89-47.25l-27.64-21.63l-30.85,5.97l-1.23,9.45l6.66,3.979l-2.47,6.472   L93.11,44.89L93.11,44.89z"></path>
    <path class="country" id="banks" fill="#84C47B" d="M203.73,35.89l0.22,4.02l-7.98,8.271l2,6.7l5.76-1.562l3.33-4.92l8.42-3.13l6.87-0.45   l-5.319-5.81l-2.66,2.01l-2-0.67l-1.11-2.46l-2.438-2.46L203.73,35.89L203.73,35.89z"></path>
    <path class="country" id="prince_patrick" fill="#84C47B" d="M214.15,24.05l-1.77,3.13l8.65,3.13l3.1-4.688l1.33,3.13h2.22l4.21-4.69l-5.1-1.34   l-2-1.562l-2.66,2.682L214.15,24.05L214.15,24.05z"></path>
    <path class="country" id="eglinton" fill="#84C47B" d="M229.23,30.31l-6.87,2.9v2.229l8.87,3.352l-2,2.229l1.33,2.9l5.54-2.46h4.66l2.22,3.568   l3.77-3.8l-0.89-3.58l-3.102,1.12l-0.438-4.47l1.55-2.681h-1.55l-2.44,1.561l-1.11,0.89l0.67,3.13l-1.77,1.342l-2.66-0.222   l-0.67-4.02L229.23,30.31L229.23,30.31z"></path>
    <path class="country" id="mackenzie_king" fill="#84C47B" d="M238.32,23.38l-0.67,2.229l4.21,2.012l3.1-1.79l-0.22-1.342L238.32,23.38L238.32,23.38   z"></path>
    <path class="country" id="king_christian" fill="#84C47B" d="M241.64,19.58l-3.1,1.118l0.22,1.562l6.87-0.45l-0.22-1.56L241.64,19.58L241.64,19.58z   "></path>
    <path class="country" id="ellef_ringnes" fill="#84C47B" d="M256.5,23.38l-0.44,1.56l-1.109,1.562v2.229l4.21-0.67l4.43,3.8h1.55v-3.8l-4.43-4.92   L256.5,23.38L256.5,23.38z"></path>
    <path class="country" id="amund_ringnes" fill="#84C47B" d="M267.81,27.85l1.771,2.01l-1.55,2.682l1.108,2.898l4.88-2.68v-2.01l-2.88-3.352   L267.81,27.85L267.81,27.85z"></path>
    <path class="country" id="axel_heiberg" fill="#84C47B" d="M274.24,22.71l0.22,3.568h5.99L282,27.62l-0.22,1.56l-5.32,0.67l3.77,5.14l5.1,0.892   l7.09-3.13l-10.2-15.42l-3.1,2.01l0.22,2.68l-3.55-1.34L274.24,22.71L274.24,22.71z"></path>
    <path class="country" id="victoria" fill="#84C47B" d="M222.58,47.96l-8.42,2.229l-4.88,4.25l0.438,4.69l8.87,2.68l-2,4.47l-6.43-4.02l-1.771,3.35   l4.21,2.9l-0.22,4.688l6.43,1.79l7.76-0.448l1.33-2.46l5.76,6.479l3.99-1.34l0.67-4.47l2.88,2.01l0.438-4.47l-3.55-2.23l0.22-14.07   l-3.1-2.46L231.89,56L222.58,47.96L222.58,47.96z"></path>
    <path class="country" id="prince_of_wales" fill="#84C47B" d="M249.63,57.79l-2.88-1.342l-1.55,2.012l3.1,4.92l0.22,4.688l6.65-4.02v-5.81   l2.44-2.46l-2.44-1.79h-3.99L249.63,57.79L249.63,57.79z"></path>
    <path class="country" id="prescott" fill="#84C47B" d="M263.82,55.78l-4.66,3.802l1.11,4.688h2.88l1.33-2.46l2,2.01l2-0.22l5.32-4.47L263.82,55.78   L263.82,55.78z"></path>
    <path class="country" id="cornwallis" fill="#84C47B" d="M263.37,48.4l-1.11,2.23l4.88,1.79l1.33-2.012L263.37,48.4L263.37,48.4z"></path>
    <path class="country" id="bathurst" fill="#84C47B" d="M260.49,39.908l-4.88,0.672l-2.88,2.68l5.32,0.22L256.5,47.5l1.11,1.79l1.55-0.222   l3.77-6.028L260.49,39.908L260.49,39.908z"></path>
    <path class="country" id="devon" fill="#84C47B" d="M268.92,38.35l-2.66,0.89l0.44,3.57l4.43,2.9l0.22,2.229l-1.33,1.34l0.67,4.472l17.07,5.58   l4.66,1.56l4.66-4.02l-5.54-4.472l-5.1,1.34l-7.09-0.67l-2.66-2.68l-0.67-7.37l-4.43-2.229L268.92,38.35L268.92,38.35z"></path>
    <path class="country" id="baffin" fill="#84C47B" d="M282.88,61.59L278,61.14l-5.76,2.23l-3.102,4.238l0.892,11.62l9.529,0.45l9.09,4.47l6.43,7.37   l4.88-0.22l-1.33,6.92l-4.43,7.37l-4.88,2.229l-3.55-0.67l-1.77-1.56l-2.66,3.568l1.11,3.57l3.77,0.22l4.66-2.229l3.99,10.28   l9.979,6.479l6.87-8.71l-5.76-9.38l3.33-3.8l4.66,7.818l8.42-7.368l-1.55-3.352l-5.761,1.79l-3.989-10.95l3.77-6.25l-7.54-8.04   l-4.21,2.9l-3.99-8.71l-8.42,1.12l-2.22-10.5l-6.87,4.688l-0.67,5.812h-3.77l0.44-5.142L282.88,61.59L282.88,61.59z"></path>
    <path class="country" id="bylot" fill="#84C47B" d="M292.86,65.61l-1.77,1.79l1.55,2.46l7.32,0.892l-4.66-4.92L292.86,65.61L292.86,65.61z"></path>
    <path class="country" id="ellesmere" fill="#84C47B" d="M285.77,40.36v2.012l-4.88,1.118l1.33,2.23l5.54,2.229l6.21,0.672l4.43,3.13l4.43-2.46   l-3.1-3.132h3.99l2.44-2.68l5.99-0.89v-1.34l-3.33-2.23l0.44-2.46l9.31,1.562l13.75-5.36l-5.1-1.562l1.33-1.79h10.64l1.77-1.788   l-21.51-7.602l-5.102-1.79l-5.54,4.021l-6.21-5.142l-3.33-0.22l-0.67,4.25l-4.21-3.8l-4.88,1.56l0.89,2.46l7.32,1.562l-0.438,3.568   l3.99,2.46l9.76-2.46l0.22,3.352l-7.98,3.8l-4.88-3.8l-4.43,0.45l4.43,6.26l-2.22,1.12l-3.33-2.9l-2.44,1.562l2.22,4.238h3.77   l-0.89,4.021l-3.1-0.45l-3.99-4.25L285.77,40.36L285.77,40.36z"></path>
    <path class="country" id="southhampton" fill="#84C47B" d="M266.01,101.85l-4.229,5.32l-0.26,5.858l3.699-2.13h4.49l3.17,2.932l2.91-2.4   L266.01,101.85L266.01,101.85z"></path>
    <path class="country" id="russia" fill="#84C47B" d="M817.97,72.93l1.761,6.08l3.521,1.01l3.521-5.57l-2.011-3.8l0.75-3.29h5.28l-1.26,2.53   l0.5,9.12l-7.54,18.74l0.75,4.05l-0.25,6.84l14.069,20.51l2.761,0.76l0.25-16.71l2.76-2.528l-3.021-6.58l2.511-2.79l-5.53-7.34   l-3.021,0.25l-1-12.15l7.791-2.03l0.5-3.55l4.021-1.01l2.26,2.03l2.761-11.142l4.771-8.1l3.771-2.03l3.271,0.25v-3.8l-5.28-1.01   l-7.29-6.08l3.521-4.05l-3.021-6.842l2.511-2.528l3.021,4.05l7.54,2.79l8.29,0.76l1.01-3.54l-4.271-4.3l4.771-6.58l-10.81-3.8   l-2.76,5.568l-3.521-4.56l-19.852-6.84l-18.85,3.29l-2.76,1.52v1.521l4.02,2.03l-0.5,4.81l-7.289-3.04l-16.08,6.33l-2.761-5.82   h-11.06l-5.03,5.32l-17.84-4.05l-16.33,3.29l-2.01,5.06l2.51,0.76l-0.25,3.802l-15.83,1.77l1.01,5.062l-14.579-2.53l3.521-6.58   l-14.83-0.76l1.26,6.84l-4.77,2.28L693.3,42.82l-16.33,2.79l-6.28,5.82l-0.25,3.54l-4.02,0.25l-0.5-4.05l12.82-11.142v-7.6   l-8.29-2.28l-10.812,3.54l-4.52-4.56h-2.012l-2.51,5.06l2.01,2.28l-14.33,7.85l-12.31,9.37l-7.54,10.38v4.302l8.04,3.288   l-4.02,3.04l-8.54-3.04l-3.521,3.04l-5.279-6.078L604.1,70.9l5.78,18.23l1.511,0.51l4.021-2.03l2.01,1.521v3.29L613.65,90.9   l-2.26,1.771l1.51,3.29l-1.26,8.608l-7.791,0.762l-0.5-2.79l4.521-2.79l1.01-7.602l-5.029-6.58l-1.761-11.39l-8.04-1.271   l-0.75,4.052l1.512,2.028l-3.271,2.79l1.26,7.602l4.771,2.028l1.01,5.57l-4.78-3.04l-12.31-2.28l-1.51,4.052l-9.802,3.54   l-1.51-2.53l-12.819,7.09l-0.25,4.812l-5.029,0.76l1.51-3.54v-3.54l-5.03-1.771l-3.271,1.271l2.761,5.32l2.01,3.538v2.79   l-3.771-0.76l-0.75-0.76l-3.771,4.05l2.011,3.54l-8.539-0.25l2.76,3.55l-0.75,1.521h-4.521l-3.271-2.28l-0.75-6.33l-5.279-2.03   v-2.528l11.06,2.278l6.03,0.512l2.511-3.801l-2.261-4.051l-16.08-6.33l-5.55,1.381l-1.9,1.631l0.592,3.75l2.358,0.408l-0.55,5.9   l7.28,17.1l-5.261,8.342l-0.359,1.88l2.67,1.88l-2.41,1.59l-1.6,0.03l0.3,7.35l2.21,3.13l0.03,3.04l2.83,0.26l4.33,1.65l4.58,6.3   l0.05,1.66l-1.49,2.55l3.42-0.188l3.33,0.96l4.5,6.37l11.08,1.01l-0.479,7.58l-3.82,3.27l0.789,1.28l-3.771,4.05l-1,3.8l2.261,3.29   l7.289,2.53l3.021-1.77l19.35,7.34l0.75-2.03l-4.02-3.8v-4.812l-2.51-0.76l0.5-4.05l4.02-4.81l-7.21-5.4l0.5-7.51l7.71-5.07   l9.05,0.51l1.511,2.79l9.3,0.51l6.791-3.8l-3.521-3.8l0.75-7.09l17.591-8.61L632,157.5l4.52-4.052l13.32,12.66l10.051-1.01   l3.521,3.54l9.55,1.01l6.28-8.608l8.04,3.55l4.27,0.76l4.271-3.8l-3.771-2.53l3.271-5.06l9.3,3.04l2.01,4.05l4.021,0.25l2.51-1.771   l6.79-0.25l0.75,1.771l7.79,0.51l5.278-5.57l10.812,1.271l3.271-1.271l1-6.08l-3.271-7.34l3.271-2.79h10.301l9.8,11.65l12.56,7.09   h3.771l0.5-3.04l4.52-2.79l0.5,16.46l-4.02,0.25v4.05l2.26,2.79l-0.42,3.62l1.67,0.69l1.01-2.53l1.512,0.51l1,1.012l4.52-1.012   l4.52-13.17l0.5-16.46l-5.778-13.17l-7.29-8.859l-3.521,0.511v2.79l-8.539-3.29l3.271-7.09l2.76-18.74l11.562-3.54l5.529-3.54   h6.029L805.859,96l1.511,2.528l5.28-5.568l3.02,0.25l-0.5-3.29l-4.779-1.012l3.271-11.898L817.97,72.93L817.97,72.93z"></path>
    <path class="country" id="norway" fill="#84C47B" d="M515.46,102.14l2.021-1.48L517.3,99l-1.28-0.74l0.182-2.03h1.1V95.12l-4.771-1.29l-7.149,0.738   l-0.729,3.142L503,97.158l-1.1-1.85l-3.49,0.18L498.04,99l-1.649,0.738l-0.921-1.85l-7.34,5.91l1.47,1.66l-2.75,1.29l-6.238,12.38   l-2.2,1.479l0.18,1.11l2.2,1.109l-0.55,2.399l-3.67-0.188l-1.102-1.29l-2.38,2.77l-1.47,1.11l-0.37,2.59l-1.28,0.74l-3.3,0.738   l-1.65,5.182l1.102,8.5l1.28,3.88l1.47,1.479l3.3-0.18l4.771-4.62l1.83-3.14l0.551,4.62l3.119-5.54l0.181-15.53l2.54-1.6l0.76-8.57   l7.7-11.09l3.67-1.29l1.649-2.03l5.5,1.29l2.75,1.66l0.921-4.62l4.59-2.77L515.46,102.14L515.46,102.14z"></path>
    <path class="country" id="sweden" fill="#84C47B" d="M497.72,104.58l1.96,1.81h3.67l2.021,3.88l0.55,6.65l-4.95,3.51v3.51l-3.488,4.812l-2.021,0.18   l-2.75,4.62l0.18,4.438l4.771,3.512l-0.37,2.028l-1.83,2.771l-2.75,2.398l0.181,7.95l-4.221,1.48l-1.47,3.14h-2.021l-1.1-5.54   l-4.59-7.04l3.77-6.31l0.261-15.59l2.601-1.432l0.63-8.92l7.41-10.608L497.72,104.58L497.72,104.58z"></path>
    <path class="country" id="finland" fill="#84C47B" d="M506.79,116.94l2.07,0.91l1.28,2.4l-1.28,1.658l-6.421,7.021l-1.101,3.7l1.472,5.358   l4.948,3.7l6.601-3.14l5.319-0.74l4.95-7.95l-3.67-8.688l-3.49-8.32l0.551-5.36l-2.199-0.368l-0.57-3.91l-2.96-4.83l-3.28,2.27   l-1.29,5.271l-3.479-2.09l-4.84-1.182l-1.08,1.26l1.858,1.682l3.392-0.062l2.729,4.41L506.79,116.94L506.79,116.94z"></path>
  </g>
  <g>
    <path class="country" id="usa" fill="#84C47B" d="M148.76,158.34l-1,4.02l-3.49-2.26h-1.74l-1,4.271l-12.21,27.358l3.239,23.84l3.99,2.012   l0.75,6.528h8.22l7.97,6.021l15.688,1.51l1.74,8.03l2.49,1.76l3.489-3.51l2.74,1.25l2.49,11.54l4.229,2.76l3.491-6.53l10.71-7.78   l6.97,3.262l5.979,0.5l0.25-3.762l12.45,0.25l2.49,2.762l0.5,6.27l-1.49,3.51l1.74,6.021h3.74l3.739-5.771l-1.489-2.76l-1.49-6.02   l2.24-6.78l10.209-8.78l7.72-2.26l-1-7.28l10.71-11.55l10.71-1.76L272.8,199l10.46-6.021v-8.03l-1-0.5l-3.74,1.25l-0.5,4.922   l-12.43,0.148l-9.74,6.47l-15.29,5l-2.439-2.988l6.939-10.5l-3.43-3.271l-2.33-4.438l-4.83-3.882l-5.25-0.438l-9.92-6.771   L148.76,158.34L148.76,158.34z"></path>
    <path class="country" id="vancouver" fill="#84C47B" d="M139.45,147.948l-1.53,0.602l2.81,3.26l0.68,3.86l2.81,3l2.38-0.432V154.3l-2.89-1.8   L139.45,147.948L139.45,147.948z"></path>
    <path class="country" id="newfoundland" fill="#84C47B" d="M317.52,171.05l-10.57,10.12l1.06,2.398l12.94,4.79l1.85-3.188l-1.06-5.32l-4.23,0.53   l-2.38-2.66l3.96-3.99L317.52,171.05L317.52,171.05z"></path>
    <path class="country" id="haida_gwaii" fill="#84C47B" d="M133.83,128.408l-1.7,3.262l0.59,2.31l1.11,0.69l-0.26,0.938l-1.19,0.34l0.34,3.432   l1.28,1.29l1.02-1.11l-1.28-3.34l0.76-2.66l1.87-2.49l-1.36-2.31L133.83,128.408L133.83,128.408z"></path>
    <path class="country" id="bimini" fill="#84C47B" d="M239.61,259.13l-1.261-0.392l-0.1,2.432l1.55,1.56l1.062-1.56L239.61,259.13L239.61,259.13z"></path>
    <path class="country" id="andros" fill="#84C47B" d="M242.12,262.93l-1.74,0.97l1.64,2.34l0.87-1.17L242.12,262.93L242.12,262.93z"></path>
    <path class="country" id="inagua" fill="#84C47B" d="M247.73,264.68l-1.84-0.1l0.19,1.17l1.35,1.948l1.16-1.27L247.73,264.68L247.73,264.68z"></path>
    <path class="country" id="eleuthera" fill="#84C47B" d="M246.86,262.35l-3-1.27l-0.58-3.021l1.16-0.49l1.16,2.342l1.16,0.88L246.86,262.35   L246.86,262.35z"></path>
    <path class="country" id="grand_bahama" fill="#84C47B" d="M243.96,256.21l-1.55-0.392l-0.29-1.949l-1.64-0.579l1.06-1.07l1.93,0.68l1.45,0.88   L243.96,256.21L243.96,256.21z"></path>
    <path class="country" id="canada" fill="#84C47B" d="M158.22,48.658l1.99,3.012l1,4.02l4.98,1.25l3.49-3.76l2.99,1.51l8.47,0.75l5.98-2.51l1,8.28   h3.49v-3.512l3.489,0.25l8.721,10.29l5.729,3.512l-2.99,4.77l1.25,1.25L219,80.03l0.25,5.021l2.99,0.5l0.75-7.53l4.729-1.25   l3.49,5.271l7.47,3.51l3.74,0.75l2.49-3.01l0.25-4.771l4.479-2.76l1.49,4.02l-3.99,7.03l0.5,3.51l2.24-3.51l4.48-4.02l0.25-5.271   l-2.49-4.02l0.75-3.262l5.98-3.01l2.74,2.01l0.5,17.57l4.23-3.76l2.49,1.51l-3.49,6.021l4.479,1l6.48-10.04l5.479,5.77l-2.24,10.29   l-5.48,3.01l-5.23-2.51l-9.46,2.01l1,3.262l-2.491,4.02l-7.72,1.76l-8.72,6.78l-7.72,10.29l-1,3.26l5.229,2.01l1.99,5.021   l7.22,7.28l11.46,5.02l-2.49,11.54l-0.25,3.26l2.99,2.011l3.99-5.271l0.5-10.04l6.23-0.25l2.99-5.77l0.5-8.78l7.97-15.562   l9.96,3.512l5.229,7.278l-2.24,7.28l3.99,2.26l9.71-6.528l2.74,17.818l8.97,10.79l0.25,5.521l-9.96,2.51l-4.729,5.02l-9.96-2.26   l-4.98-0.25l-8.72,6.78l5.229-1.25l6.48-1.25l1.25,1.51l-1.74,5.521l0.25,5.02l2.99,2.01l2.99-0.75l1.5-2.26h1.989l-3.239,6.021   l-6.23,0.25l-2.74,4.02h-3.489l-1-3.01l4.979-5.021l-5.979,2.012l-0.271-8.53l-1.72-1l-5.23,2.26l-0.5,4.271h-11.96l-10.21,7.028   l-13.7,4.521l-1.49-2.01l6.899-10.302l-3.92-3.77l-2.49-4.78l-5.07-3.87l-5.44-0.448l-9.75-6.83l-70.71-11.62l-1.17-4.79   l-6.479-6.021v-5.02l1-4.521l-0.5-2.51l-2.49-2.51l-0.5-4.021l6.479-4.52l-3.99-21.58l-5.48-0.25l-4.979-6.53L158.22,48.658   L158.22,48.658z"></path>
  </g>
  <g>
    <path class="country" id="estonia_1_" fill="#84C47B" d="M518.07,151.37l-6.852-1.11l0.15,3.83l6.35,3.88l2.602-0.76l-0.15-2.92L518.07,151.37  L518.07,151.37z"></path>
    <path class="country" id="hiumaa" fill="#84C47B" d="M506.76,147.64l-1.55-0.05l-0.899,0.91l0.649,0.96l1.55,0.1l0.801-1.16L506.76,147.64  L506.76,147.64z"></path>
    <path class="country" id="saaremaa" fill="#84C47B" d="M506.609,151.72l-1.5-0.15l-2.699,3.23v1.51l0.9,0.35l1.75,0.052l2.898-2.37l0.398-0.812  L506.609,151.72L506.609,151.72z"></path>
    <path class="country" id="lithuania" fill="#84C47B" d="M510.811,154.698l-2.149-0.05l-2.95,2.82h-2.5l0.148,3.53l-1.5,2.77l5.4,0.05l1.551-0.198  l1.549,1.868l3.552-0.148l3.399-4.33l-0.2-2.57L510.811,154.698L510.811,154.698z"></path>
    <path class="country" id="belarus" fill="#84C47B" d="M510.66,166.29l1.5,2.47l-0.6,1.97l0.1,1.562l0.55,1.868l3.101-1.76l3.851,0.102l2.698,1.108  h6.852l2-4.79l1.2-1.81v-1.21l-4.302-6.05l-3.799-1.512l-3.101-0.35l-2.7,0.86l0.1,2.72l-3.75,4.74L510.66,166.29L510.66,166.29z"></path>
    <path class="country" id="poland" fill="#84C47B" d="M511.46,174.76l0.851,1.56l0.199,1.66l-0.699,1.61l-1.601,3.08l-1.351,0.608l-1.75-0.76  l-1.05,0.05l-2.551,0.96l-2.899-0.858l-4.699-3.33l-4.601-2.47l-1.851-2.82l-0.352-6.65l3.602-3.13l4.7-1.56l1.75-0.2l-0.7,1.41  l0.45,0.55l7.909,0.15l1.699-0.052l2.801,4.29l-0.699,1.762l0.3,2.068L511.46,174.76L511.46,174.76z"></path>
    <path class="country" id="spain" fill="#84C47B" d="M448.359,205H435.62l-2.57-1.16l-1.239,0.09l-1.5,3.12l0.529,3.21l4.87,0.45l0.62,2.05  l-2.12,11.95l0.09,2.14l3.45,1.87l3.98,0.27l7.959-1.96l3.891-4.898l0.09-4.99l6.9-6.24l0.35-2.76l-6.279-0.09L448.359,205  L448.359,205z"></path>
    <path class="country" id="portugal" fill="#84C47B" d="M430.93,211.24l-0.619,8.65l-1.771,1.6l0.18,0.98l1.24,2.05l-0.8,2.5l1.33,0.45l3.1-0.36  l-0.18-2.5l2.029-11.59l-0.439-1.6L430.93,211.24L430.93,211.24z"></path>
    <path class="country" id="majorca" fill="#84C47B" d="M461.1,217.21l-1.59,0.54l0.352,1.43h2.3l0.97-1.07L461.1,217.21L461.1,217.21z"></path>
    <path class="country" id="sardinia" fill="#84C47B" d="M477.561,213.38l-2.649,1.34l0.35,5.17l2.12,0.36l1.59-1.521v-4.898L477.561,213.38  L477.561,213.38z"></path>
    <path class="country" id="corsica" fill="#84C47B" d="M477.83,206.96l-1.95,1.96l-0.18,1.778l1.59,0.98l0.62-0.09l0.35-2.59L477.83,206.96  L477.83,206.96z"></path>
    <path class="country" id="france" fill="#84C47B" d="M460.4,178.698l-2.211,0.54l-4.42,4.812l-1.33,0.09l-1.771-1.25l-1.149,0.27l-0.879,2.762  l-6.462,0.18l0.182,1.43l4.42,2.94l5.13,4.1l-0.09,4.9l-2.74,4.81l5.93,2.852l6.021,0.18l1.859-2.14l3.799,0.09l1.062,0.979  l3.8-0.27l1.95-2.5l-2.479-2.94l-0.181-1.87l0.53-2.05l-1.24-1.778l-2.12,0.618l-0.27-1.6l4.688-5.17v-3.12l-3.1-1.78l-1.59-0.27  L460.4,178.698L460.4,178.698z"></path>
    <path class="country" id="netherlands" fill="#84C47B" d="M470.09,168.27l-4.529,2.23l0.959,0.87l0.102,2.229l-0.96-0.19l-1.062-1.648l-2.528,4.01  l3.89,0.812l1.45,1.528l0.771,0.021l0.51-3.46l2.451-1.03L470.09,168.27L470.09,168.27z"></path>
    <path class="country" id="belgium" fill="#84C47B" d="M461.609,176.52l-0.641,1.602l6.881,4.538l1.979,0.472l0.069-2.15l-1.729-1.938h-1.062  l-1.448-1.65L461.609,176.52L461.609,176.52z"></path>
    <path class="country" id="germany" fill="#84C47B" d="M471.141,167.88l3.569-0.58v-2.521l2.99-0.488l1.64,1.648l1.73,0.19l2.699-1.17l2.409,0.68  l2.12,1.84l0.29,6.89l2.12,2.82l-2.79,0.392l-4.63,2.908l0.39,0.972l4.142,3.88l-0.29,1.938l-3.852,1.94l-3.569,0.1l-0.869,1.84  h-1.83l-0.87-1.938l-3.18-0.78l-0.102-3.2l-2.698-1.84l0.289-2.33l-1.83-2.52l0.479-3.3l2.5-1.17L471.141,167.88L471.141,167.88z"></path>
    <path class="country" id="denmark" fill="#84C47B" d="M476.77,151.5l-4.148,4.59l-0.15,2.99l1.892,4.93l2.96-0.562l-0.37-4.028l2.04-2.28l-0.04-1.79  l-1.44-3.729L476.77,151.5L476.77,151.5z"></path>
    <path class="country" id="sjlland" fill="#84C47B" d="M481.439,159.64l-0.931-0.04l-1.22,1.12l0.148,1.75l2.892,0.08l0.149-1.98L481.439,159.64  L481.439,159.64z"></path>
    <path class="country" id="gotland" fill="#84C47B" d="M498.49,150.17l-2.11,1.67l1.06,2.45l1.871-1.82L498.49,150.17L498.49,150.17z"></path>
    <path class="country" id="switzerland" fill="#84C47B" d="M472.91,189.38l-4.36,4.64l0.091,0.47l1.789-0.56l1.61,2.24l2.72-0.96l1.881,1.46  l0.771-0.44l2.319-3.64l-0.59-0.562l-2.291-0.06l-1.108-2.271L472.91,189.38L472.91,189.38z"></path>
    <path class="country" id="czech" fill="#84C47B" d="M488.43,184.87h2.971h1.46l2.37,1.688l4.391-3.65l-4.261-3.038l-4.22-2.04l-2.891,0.52  l-3.92,2.521L488.43,184.87L488.43,184.87z"></path>
    <path class="country" id="slovakia" fill="#84C47B" d="M495.84,187.13l0.69,0.608l0.09,1.04l7.63-0.17l5.641-2.43l-0.091-2.47l-1.08,0.479  l-1.55-0.83l-0.95-0.04l-2.5,1l-3.398-0.818L495.84,187.13L495.84,187.13z"></path>
    <path class="country" id="austria" fill="#84C47B" d="M480.63,190.12l-0.649,1.35l0.561,0.96l2.33-0.48h1.979l2.15,1.82l4.57-0.83l3.358-2l0.86-1.35  l-0.13-1.74l-3.021-2.26l-4.05,0.04l-0.34,2.3l-4.26,2.08L480.63,190.12L480.63,190.12z"></path>
    <path class="country" id="hungary" fill="#84C47B" d="M496.74,189.6l-1.16,1.82l0.09,2.778l1.85,0.95l5.69,0.17l7.93-6.68l0.04-1.48l-0.858-0.43  l-5.73,2.602L496.74,189.6L496.74,189.6z"></path>
    <path class="country" id="slovenia" fill="#84C47B" d="M494.8,191.99l-2.54,1.521l-4.74,1.04l0.95,2.74l3.32,0.04l3.06-2.562L494.8,191.99  L494.8,191.99z"></path>
    <path class="country" id="croatia" fill="#84C47B" d="M495.62,195.158l-3.53,2.91h-3.58l-0.43,2.521l1.64,0.43l0.82-1.22l1.29,1.13l1.03,3.6  l7.068,3.302l0.7-0.802l-7.17-7.398l0.729-1.352l6.812-0.26l0.688-2.17l-4.438,0.13L495.62,195.158L495.62,195.158z"></path>
    <path class="country" id="bosnia" fill="#84C47B" d="M494.8,198.94l-0.37,0.61l6.71,6.92l2.46-3.62l-0.09-1.43l-2.15-2.61L494.8,198.94L494.8,198.94  z"></path>
    <path class="country" id="italy" fill="#84C47B" d="M472.27,196.98l-0.619,1.57l0.171,1.71l2.39,2.79l3.76-0.13l8.301,9.64l5.181,1.5l3.06,2.89  l0.73,6.592l1.64-0.96l1.42-3.592l-0.35-2.58l2.43-0.22l0.352-1.46l-6.852-3.28l-6.5-6.39l-2.59-3.82l-0.63-3.63l3.311-0.79  l-0.851-2.39l-2.03-1.71l-1.75-0.08l-2.438,0.67l-2.302,3.22l-1.39,0.92l-2.149-1.318L472.27,196.98L472.27,196.98z"></path>
    <path class="country" id="sicily" fill="#84C47B" d="M492.439,223.02l-1.449-0.78l-4.95,0.78l0.17,1.34l4.45,2.24l0.67,0.73l1.17,0.17  L492.439,223.02L492.439,223.02z"></path>
    <path class="country" id="malta" fill="#84C47B" d="M492.609,230.47l-1.67,0.34l0.061,1.85l1.5,0.5l0.67-0.56L492.609,230.47L492.609,230.47z"></path>
    <path class="country" id="ukraine" fill="#84C47B" d="M515.57,173.15l-2.9,1.63l0.72,3.08l-2.68,5.65l0.021,2.49l1.261,0.8l8.08,0.398l2.26-1.868  l2.42,0.81l3.47,4.63l-2.54,4.562l3.021,0.88l3.95-4.552l2.26,0.41l2.1,1.46l-1.85,2.44l2.5,3.9h2.66l1.369-2.602l2.819-0.57  l0.08-2.108l-5.239-0.812l0.159-2.27h5.08l5.48-4.39l2.42-2.11l0.398-6.66l-10.8-0.97l-4.43-6.25l-3.061-1.05l-3.711,0.158  l-1.67,4.131l-7.6,0.101l-2.471-1.14L515.57,173.15L515.57,173.15z"></path>
    <path class="country" id="moldova" fill="#84C47B" d="M520.75,187.71l3.1,4.77l-0.26,2.7l1.11,0.05l2.63-4.45l-3.16-3.92l-1.79-0.738L520.75,187.71  L520.75,187.71z"></path>
    <path class="country" id="romania" fill="#84C47B" d="M512.18,187.6l-0.26,1.48l-5.79,4.818l4.84,7.102l3.102,2.17h5.579l1.841-1.54l2.47-0.32  l1.84,1.11l3.262-3.71l-0.631-1.86l-3.311-0.85l-2.261-0.11l0.109-3.18l-3-4.722L512.18,187.6L512.18,187.6z"></path>
    <path class="country" id="serbia_and_montenegro" fill="#84C47B" d="M505.55,194.54l-2.05,1.54h-1l-0.68,2.118l2.42,2.812l0.16,2.229l-3,4.24  l0.42,1.271l1.74,0.318l1.368-1.858l0.74-0.052l1.26,1.222l3.841-1.17l-0.319-5.46L505.55,194.54L505.55,194.54z"></path>
    <path class="country" id="bulgaria" fill="#84C47B" d="M511.439,202.39l0.16,4.98l1.681,3.5l6.31,0.108l2.84-2.01l2.79-1.11l-0.68-3.18l0.63-1.7  l-1.42-0.74l-1.95,0.16l-1.53,1.54l-6.42,0.05L511.439,202.39L511.439,202.39z"></path>
    <path class="country" id="albania" fill="#84C47B" d="M504.02,209.76v4.61l1.32,2.488l0.95-0.108l1.63-2.972l-0.95-1.33l-0.37-3.29l-1.26-1.17  L504.02,209.76L504.02,209.76z"></path>
    <path class="country" id="macedonia" fill="#84C47B" d="M510.92,208.01l-3.37,1.11l0.16,2.858l0.79,1.01l4-1.858L510.92,208.01L510.92,208.01z"></path>
    <path class="country" id="greece" fill="#84C47B" d="M506.71,217.6l-0.11,1.33l4.631,2.33l2.209,0.85l-1.158,1.222l-2.58,0.26l-0.37,1.17l0.89,2.01  l2.892,1.54l1.26,0.11l0.16-3.45l1.89-2.28l-5.16-6.1l0.681-2.07l1.211-0.05l1.84,1.479l1.16-0.58l0.368-2.068l5.421,0.05  l0.211-3.18l-2.261,1.59l-6.631-0.16l-4.31,2.23L506.71,217.6L506.71,217.6z"></path>
    <path class="country" id="thrace" fill="#84C47B" d="M523.02,209.698l-0.158,3.552l3.1-0.95l1.42-0.95l-0.42-1.54l-1.47-1.17L523.02,209.698  L523.02,209.698z"></path>
    <path class="country" id="crete" fill="#84C47B" d="M516.76,230.59l1.631,0.05l0.681,1.01h2.368l1.58-0.58l0.53,0.642l-1.05,1.38l-4.63,0.16  l-0.84-1.11l-0.89-0.53L516.76,230.59L516.76,230.59z"></path>
  </g>
</svg>
